<svg width="72" height="15" viewBox="0 0 72 15" fill="none" xmlns="http://www.w3.org/2000/svg">
<g clip-path="url(#clip0_107_894)">
<path fill-rule="evenodd" clip-rule="evenodd" d="M47.4525 8.64883C47.4952 8.92883 47.5165 9.14421 47.5805 9.3596C48.0497 11.3627 49.6066 12.6981 51.6326 12.8704C53.4241 13.0211 54.8317 12.3319 55.8767 10.8458C56.3886 10.135 57.2203 10.0058 57.8814 10.5873C58.2653 10.9104 58.308 11.3411 58.0094 11.7504C57.8388 11.9658 57.6895 12.1811 57.5189 12.4181C56.8364 13.3658 55.9407 14.0119 54.8317 14.3996C53.0402 15.0242 51.2487 15.1104 49.4786 14.4427C47.09 13.5596 45.6824 11.7934 45.2772 9.27344C45.0426 7.72267 45.1919 6.17191 45.8956 4.77191C46.9193 2.76883 48.5189 1.54114 50.7369 1.17498C52.2085 0.93806 53.6587 1.08883 55.0236 1.75652C56.9644 2.68268 58.1374 4.25498 58.5852 6.34421C58.7132 6.92575 58.7559 7.50729 58.7985 8.08883C58.8412 8.45498 58.6705 8.60575 58.308 8.62729C58.1374 8.62729 57.9881 8.62729 57.8175 8.62729C54.5118 8.62729 51.2061 8.62729 47.9217 8.62729C47.7724 8.64883 47.6658 8.64883 47.4525 8.64883ZM56.4739 6.45191C56.1966 4.57806 53.9573 2.94114 51.8885 3.07037C49.7345 3.1996 47.6018 4.85806 47.5165 6.45191C50.481 6.45191 53.4881 6.45191 56.4739 6.45191Z" fill="#CECECE"/>
<path fill-rule="evenodd" clip-rule="evenodd" d="M30.519 8.58407C30.5403 8.77792 30.5617 8.90715 30.583 9.05792C30.9882 11.2764 32.7797 12.8056 34.9977 12.8487C36.6825 12.8702 37.9835 12.181 38.9645 10.8025C39.4764 10.0702 40.3934 9.98407 41.0332 10.6302C41.3318 10.9533 41.3958 11.341 41.0972 11.7287C40.9692 11.9225 40.8413 12.0948 40.692 12.2456C39.9669 13.3225 38.9645 14.0118 37.7489 14.421C35.9574 15.0241 34.1659 15.0672 32.4384 14.3779C29.9645 13.4087 28.5783 11.4918 28.2797 8.82099C28.1304 7.52869 28.2584 6.27945 28.7915 5.09484C29.8366 2.85484 31.5214 1.47638 33.974 1.1533C35.2749 0.980991 36.5759 1.08868 37.7702 1.58407C39.9456 2.48868 41.2038 4.19022 41.6944 6.49484C41.7797 7.01176 41.8437 7.57176 41.865 8.08869C41.8863 8.51946 41.801 8.60561 41.3531 8.60561C40.5854 8.60561 39.7749 8.60561 38.9858 8.60561C36.3413 8.60561 33.6967 8.60561 31.0948 8.60561C30.9029 8.58407 30.7323 8.58407 30.519 8.58407ZM39.583 6.38715C39.3057 4.53484 37.1304 2.96253 34.9977 3.00561C32.929 3.04868 30.7749 4.72868 30.6043 6.38715C33.5901 6.38715 36.5546 6.38715 39.583 6.38715Z" fill="#CECECE"/>
<path fill-rule="evenodd" clip-rule="evenodd" d="M67.628 9.57527C67.7987 9.72604 67.884 9.81219 67.9906 9.89835C69.1423 10.8891 70.2939 11.8799 71.4243 12.8707C71.4882 12.9353 71.5949 13.0214 71.6589 13.086C72.0854 13.5168 72.128 14.1414 71.7228 14.5722C71.3389 15.003 70.7418 15.0676 70.2939 14.7014C69.4835 14.0337 68.7157 13.3445 67.9266 12.6768C66.7963 11.7076 65.6873 10.7383 64.5569 9.76912C64.4716 9.68296 64.3437 9.59681 64.1731 9.46758C64.1731 9.7045 64.1517 9.85527 64.1517 10.006C64.1517 12.7414 64.1517 10.6953 64.1517 13.4307C64.1517 13.5599 64.1517 13.6891 64.1517 13.8183C64.1091 14.4214 63.6612 14.8522 63.0641 14.8091C62.4882 14.7876 62.1043 14.3568 62.083 13.7537C62.083 13.6245 62.083 13.4953 62.083 13.366C62.083 7.95989 62.083 7.33527 62.083 1.92912C62.083 1.75681 62.083 1.60604 62.083 1.43373C62.083 1.04604 62.1257 0.981423 62.4882 0.981423C62.9787 0.959885 63.4693 0.959885 63.9598 0.959885C65.1328 0.959885 66.3484 1.00296 67.5214 0.938346C69.5048 0.852192 71.7228 2.46758 71.9361 4.81527C72.128 6.92604 70.6991 8.92912 68.5664 9.35988C68.2892 9.4245 67.9906 9.51065 67.628 9.57527ZM64.0238 7.91681C64.1517 7.93835 64.237 7.93835 64.301 7.93835C65.2821 7.93835 66.2844 7.93835 67.2655 7.93835C67.5427 7.93835 67.8413 7.91681 68.1186 7.80912C69.0356 7.52912 69.7607 6.96912 69.9953 5.97835C70.4006 4.27681 69.1423 2.72604 67.4148 2.72604C66.3911 2.72604 65.3887 2.72604 64.3437 2.72604C64.2157 2.72604 64.1091 2.74758 63.9811 2.74758C64.0238 4.47065 64.0238 6.17219 64.0238 7.91681Z" fill="#CECECE"/>
<path fill-rule="evenodd" clip-rule="evenodd" d="M22.8413 8.60579C20.8792 8.60579 18.9811 8.60579 17.0403 8.60579C17.0403 8.7781 17.019 8.92887 17.019 9.07964C17.019 10.5873 17.019 12.0735 17.019 13.5812C17.019 13.775 17.019 13.9689 16.9763 14.1196C16.8271 14.5719 16.3579 14.8519 15.91 14.8304C15.4195 14.7873 15.0143 14.3996 14.9503 13.9043C14.929 13.775 14.9503 13.6673 14.9503 13.5381C14.9503 8.17502 14.929 7.52887 14.929 2.18733C14.929 1.97195 14.9503 1.75656 15.0143 1.56272C15.1849 1.11041 15.6541 0.851948 16.1446 0.916564C16.5925 0.981179 16.9763 1.36887 17.019 1.84272C17.0403 1.99349 17.019 2.12272 17.019 2.27349C17.019 5.03041 17.0403 3.07041 17.0403 5.82733C17.0403 5.99964 17.0617 6.15041 17.0617 6.30118C17.4242 6.38733 22.4574 6.38733 22.8413 6.30118C22.8413 6.17195 22.8626 6.04272 22.8626 5.89195C22.8626 4.68579 22.8626 3.4581 22.8626 2.25195C22.8626 2.12272 22.8626 2.01503 22.8626 1.88579C22.9053 1.34733 23.3105 0.938102 23.8436 0.916564C24.3768 0.895025 24.8673 1.30426 24.9313 1.84272C24.9526 1.97195 24.9313 2.07964 24.9313 2.20887C24.9313 5.9781 24.9313 9.72579 24.9313 13.495C24.9313 13.6243 24.9313 13.7319 24.9313 13.8612C24.8673 14.3996 24.3981 14.8304 23.865 14.8089C23.3318 14.7873 22.9053 14.3566 22.8413 13.8181C22.8413 13.6889 22.8413 13.5812 22.8413 13.4519C22.8413 12.0089 22.8413 10.5227 22.8413 9.07964C22.8413 8.95041 22.8413 8.79964 22.8413 8.60579Z" fill="#CECECE"/>
<path fill-rule="evenodd" clip-rule="evenodd" d="M5.8649 14.9165C4.47865 14.895 3.1777 14.5934 1.98339 13.8611C1.47154 13.5596 1.00234 13.1719 0.618457 12.7196C0.426514 12.4827 0.191916 12.2457 0.106608 11.9442C-0.0213538 11.5565 -0.0426808 11.1257 0.319878 10.7811C0.725092 10.3934 1.27959 10.2427 1.8341 10.6088C2.36727 10.9965 2.6232 11.4919 3.07106 11.9442C3.71087 12.5903 4.54263 12.935 5.43836 13.0427C6.27011 13.1288 7.08054 13.1073 7.89097 12.8273C8.21087 12.698 8.55211 12.5473 8.82936 12.3319C9.3412 11.7503 9.49049 10.9319 8.87201 10.3719C8.57343 10.1134 8.18955 9.91958 7.80566 9.74727C6.86727 9.33804 5.88623 9.05804 4.90519 8.79958C4.09476 8.60573 3.32699 8.34727 2.51656 8.11035C2.21798 8.0242 1.9194 7.85189 1.64215 7.70112C0.895708 7.29189 0.469168 6.64573 0.341205 5.82727C0.106608 4.12573 0.725092 2.5965 2.19666 1.84266C4.49997 0.701119 6.8886 0.808812 9.19192 2.12266C9.61846 2.35958 10.0237 2.72573 10.3862 3.04881C10.6635 3.28573 10.8767 3.63035 10.9834 3.9965C11.09 4.44881 10.8767 4.92266 10.3222 5.05189C9.85305 5.15958 9.42651 5.00881 9.08528 4.64266C9.0213 4.57804 8.95732 4.49189 8.91466 4.42727C8.38149 3.60881 7.59239 3.1565 6.654 2.9842C5.71561 2.81189 4.77722 2.83343 3.88149 3.19958C3.56158 3.32881 3.22035 3.50112 2.96443 3.73804C2.58054 4.25497 2.43125 4.9442 2.9431 5.59035C3.34831 5.97804 3.81751 6.19343 4.32936 6.30112C5.45969 6.58112 6.61135 6.88266 7.74168 7.16266C8.4668 7.3565 9.17059 7.59343 9.83173 7.98112C10.6848 8.43343 11.3033 9.10112 11.5166 10.0703C11.7725 11.255 11.5166 12.375 10.5995 13.2365C9.55447 14.1842 8.36016 14.7011 6.97391 14.8519C6.59002 14.895 6.20613 14.895 5.8649 14.9165Z" fill="#CECECE"/>
</g>
<defs>
<clipPath id="clip0_107_894">
<rect width="72" height="14" fill="white" transform="translate(0 0.937988)"/>
</clipPath>
</defs>
</svg>
