<svg width="58" height="58" viewBox="0 0 58 58" fill="none" xmlns="http://www.w3.org/2000/svg">
<g clip-path="url(#clip0_107_705)">
<path d="M45.0293 1.52929C44.9727 1.55194 44.5422 1.65389 44.0777 1.75585C40.8039 2.51483 37.7453 5.10897 36.4199 8.25819C35.7402 9.86679 35.627 10.5012 35.627 12.6875C35.627 14.8398 35.6949 15.259 36.3746 16.9922C36.6805 17.7851 37.5074 19.1672 38.2891 20.1641L38.5043 20.4473L37.9379 22.0785C37.6207 22.9734 37.3941 23.7211 37.4168 23.7551C37.4508 23.7777 38.3004 23.5172 39.3199 23.166L41.1551 22.543L42.0727 22.9281C43.7266 23.6305 44.5195 23.8117 46.3887 23.8683C48.3145 23.9363 49.1301 23.8117 50.7613 23.2226C53.4688 22.2484 56.0176 19.8129 57.1504 17.1168C57.7395 15.7121 57.9094 14.9191 57.966 13.2086C58.034 11.3394 57.898 10.3312 57.3656 8.84725C56.7879 7.23866 56.0855 6.1285 54.7715 4.80311C53.0609 3.06991 51.2145 2.07303 48.9602 1.63124C48.2352 1.4953 45.3691 1.416 45.0293 1.52929ZM49.2207 13.8203L45.709 17.332L43.7266 15.3496L41.7441 13.3672L42.8996 12.2117L44.0664 11.0449L44.916 11.8945L45.7656 12.7441L48.1219 10.3879L50.4668 8.04296L51.5996 9.17577L52.7324 10.3086L49.2207 13.8203Z" fill="#11809C"/>
<path d="M45.0293 1.52929C44.9727 1.55194 44.5422 1.65389 44.0777 1.75585C40.8039 2.51483 37.7453 5.10897 36.4199 8.25819C35.7402 9.86679 35.627 10.5012 35.627 12.6875C35.627 14.8398 35.6949 15.259 36.3746 16.9922C36.6805 17.7851 37.5074 19.1672 38.2891 20.1641L38.5043 20.4473L37.9379 22.0785C37.6207 22.9734 37.3941 23.7211 37.4168 23.7551C37.4508 23.7777 38.3004 23.5172 39.3199 23.166L41.1551 22.543L42.0727 22.9281C43.7266 23.6305 44.5195 23.8117 46.3887 23.8683C48.3145 23.9363 49.1301 23.8117 50.7613 23.2226C53.4688 22.2484 56.0176 19.8129 57.1504 17.1168C57.7395 15.7121 57.9094 14.9191 57.966 13.2086C58.034 11.3394 57.898 10.3312 57.3656 8.84725C56.7879 7.23866 56.0855 6.1285 54.7715 4.80311C53.0609 3.06991 51.2145 2.07303 48.9602 1.63124C48.2352 1.4953 45.3691 1.416 45.0293 1.52929ZM49.2207 13.8203L45.709 17.332L43.7266 15.3496L41.7441 13.3672L42.8996 12.2117L44.0664 11.0449L44.916 11.8945L45.7656 12.7441L48.1219 10.3879L50.4668 8.04296L51.5996 9.17577L52.7324 10.3086L49.2207 13.8203Z" fill="url(#paint0_linear_107_705)"/>
<path d="M3.625 27.8672V44.8594H29H54.375V35.0039C54.375 29.5777 54.3523 25.1484 54.3184 25.1484C54.2957 25.1484 53.9445 25.3184 53.5594 25.5336C52.0867 26.3379 49.9797 26.9949 48.3938 27.1422L47.5781 27.2215V34.3355V41.4609H29H10.4219V29.5664V17.6719H21.7613H33.1008L33.0328 17.4113C32.4211 15.3609 32.3645 15.0098 32.3078 12.9367L32.2625 10.875H17.9438H3.625V27.8672Z" fill="#11809C"/>
<path d="M3.625 27.8672V44.8594H29H54.375V35.0039C54.375 29.5777 54.3523 25.1484 54.3184 25.1484C54.2957 25.1484 53.9445 25.3184 53.5594 25.5336C52.0867 26.3379 49.9797 26.9949 48.3938 27.1422L47.5781 27.2215V34.3355V41.4609H29H10.4219V29.5664V17.6719H21.7613H33.1008L33.0328 17.4113C32.4211 15.3609 32.3645 15.0098 32.3078 12.9367L32.2625 10.875H17.9438H3.625V27.8672Z" fill="url(#paint1_linear_107_705)"/>
<path d="M13.8203 29.5664V38.0625H29H44.1797V32.5344V27.0176L43.1488 26.7457C42.5824 26.6098 41.8688 26.3832 41.5742 26.2586L41.0191 26.032L36.5785 27.5727C34.143 28.4223 32.1266 29.102 32.1039 29.0793C32.0813 29.0566 32.6703 27.2895 33.418 25.1371C34.1656 22.9961 34.7773 21.2062 34.7773 21.1496C34.7773 21.1043 30.0648 21.0703 24.2988 21.0703H13.8203V29.5664ZM20.6172 26.168V27.8672H18.918H17.2188V26.168V24.4688H18.918H20.6172V26.168ZM20.6172 32.9648V34.6641H18.918H17.2188V32.9648V31.2656H18.918H20.6172V32.9648Z" fill="#11809C"/>
<path d="M13.8203 29.5664V38.0625H29H44.1797V32.5344V27.0176L43.1488 26.7457C42.5824 26.6098 41.8688 26.3832 41.5742 26.2586L41.0191 26.032L36.5785 27.5727C34.143 28.4223 32.1266 29.102 32.1039 29.0793C32.0813 29.0566 32.6703 27.2895 33.418 25.1371C34.1656 22.9961 34.7773 21.2062 34.7773 21.1496C34.7773 21.1043 30.0648 21.0703 24.2988 21.0703H13.8203V29.5664ZM20.6172 26.168V27.8672H18.918H17.2188V26.168V24.4688H18.918H20.6172V26.168ZM20.6172 32.9648V34.6641H18.918H17.2188V32.9648V31.2656H18.918H20.6172V32.9648Z" fill="url(#paint2_linear_107_705)"/>
<path d="M0.0339355 49.6965C0.0905762 51.4297 0.317139 52.1773 1.14409 53.4121C2.02769 54.7262 3.28511 55.7117 4.73511 56.2102L5.49409 56.4707H29H52.5058L53.2761 56.1988C54.1937 55.893 55.5304 55.0207 56.1308 54.3637C56.7539 53.6727 57.3882 52.6418 57.6601 51.8488C57.8527 51.3164 57.932 50.7953 57.966 49.6965L58.0226 48.2578H29H-0.0227051L0.0339355 49.6965Z" fill="#11809C"/>
<path d="M0.0339355 49.6965C0.0905762 51.4297 0.317139 52.1773 1.14409 53.4121C2.02769 54.7262 3.28511 55.7117 4.73511 56.2102L5.49409 56.4707H29H52.5058L53.2761 56.1988C54.1937 55.893 55.5304 55.0207 56.1308 54.3637C56.7539 53.6727 57.3882 52.6418 57.6601 51.8488C57.8527 51.3164 57.932 50.7953 57.966 49.6965L58.0226 48.2578H29H-0.0227051L0.0339355 49.6965Z" fill="url(#paint3_linear_107_705)"/>
</g>
<defs>
<linearGradient id="paint0_linear_107_705" x1="46.8046" y1="23.8851" x2="46.8046" y2="1.47516" gradientUnits="userSpaceOnUse">
<stop stop-color="#4AC0DE"/>
<stop offset="1" stop-color="#11809C"/>
</linearGradient>
<linearGradient id="paint1_linear_107_705" x1="29" y1="44.8594" x2="29" y2="10.875" gradientUnits="userSpaceOnUse">
<stop stop-color="#4AC0DE"/>
<stop offset="1" stop-color="#11809C"/>
</linearGradient>
<linearGradient id="paint2_linear_107_705" x1="29" y1="38.0625" x2="29" y2="21.0703" gradientUnits="userSpaceOnUse">
<stop stop-color="#4AC0DE"/>
<stop offset="1" stop-color="#11809C"/>
</linearGradient>
<linearGradient id="paint3_linear_107_705" x1="29" y1="56.4707" x2="29" y2="48.2578" gradientUnits="userSpaceOnUse">
<stop stop-color="#4AC0DE"/>
<stop offset="1" stop-color="#11809C"/>
</linearGradient>
<clipPath id="clip0_107_705">
<rect width="58" height="58" fill="white"/>
</clipPath>
</defs>
</svg>
