<svg width="58" height="58" viewBox="0 0 58 58" fill="none" xmlns="http://www.w3.org/2000/svg">
<g clip-path="url(#clip0_107_711)">
<path d="M17.8985 5.78869C11.8833 8.97189 6.34385 11.9059 5.57354 12.3137L4.18018 13.05L4.22549 21.8973C4.25947 30.2235 4.28213 30.8465 4.50869 32.2285C4.80322 34.109 5.09775 35.3551 5.61885 36.9524C7.57861 43.0129 11.6114 48.3371 16.8677 51.8149C18.6802 53.0043 19.0653 53.2196 24.4462 55.8477C27.7767 57.4789 28.9548 58.0114 29.1587 57.9547C29.306 57.9207 31.6849 56.7766 34.4489 55.4059C38.2325 53.5367 39.8638 52.6645 41.0079 51.9055C47.363 47.6801 51.747 41.1664 53.231 33.7012C53.7294 31.2203 53.7521 30.586 53.7521 21.6028V13.0047L41.461 6.50236C34.6981 2.934 29.0907 1.90735e-05 29.0001 1.90735e-05C28.9095 1.90735e-05 23.9138 2.60549 17.8985 5.78869ZM32.4325 11.2035C34.7661 11.668 36.9864 12.6082 39.1388 14.0242C40.6454 15.0098 42.9563 17.3094 43.9419 18.8047C46.6946 22.9395 47.6802 27.6633 46.7853 32.3305C44.8708 42.2426 35.1399 48.7789 25.3751 46.7172C19.054 45.3805 13.7864 40.6793 11.7927 34.5848C10.0481 29.2606 10.8638 23.6078 14.0583 18.8047C14.9759 17.4114 17.3435 15.0324 18.7481 14.0809C21.263 12.3817 23.8685 11.4188 27.2442 10.943C28.1278 10.8184 31.2544 10.977 32.4325 11.2035Z" fill="#11809C"/>
<path d="M17.8985 5.78869C11.8833 8.97189 6.34385 11.9059 5.57354 12.3137L4.18018 13.05L4.22549 21.8973C4.25947 30.2235 4.28213 30.8465 4.50869 32.2285C4.80322 34.109 5.09775 35.3551 5.61885 36.9524C7.57861 43.0129 11.6114 48.3371 16.8677 51.8149C18.6802 53.0043 19.0653 53.2196 24.4462 55.8477C27.7767 57.4789 28.9548 58.0114 29.1587 57.9547C29.306 57.9207 31.6849 56.7766 34.4489 55.4059C38.2325 53.5367 39.8638 52.6645 41.0079 51.9055C47.363 47.6801 51.747 41.1664 53.231 33.7012C53.7294 31.2203 53.7521 30.586 53.7521 21.6028V13.0047L41.461 6.50236C34.6981 2.934 29.0907 1.90735e-05 29.0001 1.90735e-05C28.9095 1.90735e-05 23.9138 2.60549 17.8985 5.78869ZM32.4325 11.2035C34.7661 11.668 36.9864 12.6082 39.1388 14.0242C40.6454 15.0098 42.9563 17.3094 43.9419 18.8047C46.6946 22.9395 47.6802 27.6633 46.7853 32.3305C44.8708 42.2426 35.1399 48.7789 25.3751 46.7172C19.054 45.3805 13.7864 40.6793 11.7927 34.5848C10.0481 29.2606 10.8638 23.6078 14.0583 18.8047C14.9759 17.4114 17.3435 15.0324 18.7481 14.0809C21.263 12.3817 23.8685 11.4188 27.2442 10.943C28.1278 10.8184 31.2544 10.977 32.4325 11.2035Z" fill="url(#paint0_linear_107_711)"/>
<path d="M27.1874 14.2281C24.9104 14.6473 23.8796 14.9645 22.3729 15.7121C18.9518 17.4227 16.3124 20.3906 15.0096 24.0156C13.9448 26.9949 13.8995 30.552 14.8964 33.5992C16.3464 38.0059 19.5182 41.257 24.0835 43.0129C24.2194 43.0582 24.2421 42.741 24.2421 40.9965V38.9121L23.721 38.6289C22.2936 37.8812 20.5831 36.216 19.6655 34.6754C19.0311 33.6219 18.4194 31.9227 18.2268 30.6992C18.0456 29.5324 18.1589 27.4707 18.4647 26.3379C18.8159 25.0238 19.6882 23.3246 20.5717 22.2145C21.9198 20.5379 23.7323 19.3371 26.1678 18.4875C26.7003 18.2949 27.2214 18.1137 27.3346 18.0684C27.5159 17.9891 27.5272 18.2496 27.5272 22.5316V27.0742H29.0565H30.5858V22.5316C30.5858 18.2496 30.5971 17.9891 30.7897 18.0684C30.8917 18.1137 31.4128 18.2949 31.9452 18.4875C34.3807 19.3371 36.2046 20.5605 37.5526 22.2258C41.0303 26.5871 40.7698 32.591 36.9182 36.6352C36.2272 37.3715 34.46 38.7195 33.9956 38.8668C33.905 38.9008 33.871 39.5125 33.8936 40.9738L33.9276 43.0469L35.0151 42.5598C39.7389 40.4301 42.8882 36.2613 43.6924 31.0957C43.8057 30.2914 43.8397 29.5211 43.8057 28.4336C43.7038 26.0434 43.262 24.3102 42.1858 22.2031C40.1694 18.2496 36.4764 15.4176 32.0585 14.4434C31.2315 14.2621 27.8331 14.1148 27.1874 14.2281Z" fill="#11809C"/>
<path d="M27.1874 14.2281C24.9104 14.6473 23.8796 14.9645 22.3729 15.7121C18.9518 17.4227 16.3124 20.3906 15.0096 24.0156C13.9448 26.9949 13.8995 30.552 14.8964 33.5992C16.3464 38.0059 19.5182 41.257 24.0835 43.0129C24.2194 43.0582 24.2421 42.741 24.2421 40.9965V38.9121L23.721 38.6289C22.2936 37.8812 20.5831 36.216 19.6655 34.6754C19.0311 33.6219 18.4194 31.9227 18.2268 30.6992C18.0456 29.5324 18.1589 27.4707 18.4647 26.3379C18.8159 25.0238 19.6882 23.3246 20.5717 22.2145C21.9198 20.5379 23.7323 19.3371 26.1678 18.4875C26.7003 18.2949 27.2214 18.1137 27.3346 18.0684C27.5159 17.9891 27.5272 18.2496 27.5272 22.5316V27.0742H29.0565H30.5858V22.5316C30.5858 18.2496 30.5971 17.9891 30.7897 18.0684C30.8917 18.1137 31.4128 18.2949 31.9452 18.4875C34.3807 19.3371 36.2046 20.5605 37.5526 22.2258C41.0303 26.5871 40.7698 32.591 36.9182 36.6352C36.2272 37.3715 34.46 38.7195 33.9956 38.8668C33.905 38.9008 33.871 39.5125 33.8936 40.9738L33.9276 43.0469L35.0151 42.5598C39.7389 40.4301 42.8882 36.2613 43.6924 31.0957C43.8057 30.2914 43.8397 29.5211 43.8057 28.4336C43.7038 26.0434 43.262 24.3102 42.1858 22.2031C40.1694 18.2496 36.4764 15.4176 32.0585 14.4434C31.2315 14.2621 27.8331 14.1148 27.1874 14.2281Z" fill="url(#paint1_linear_107_711)"/>
<path d="M23.4491 23.857C22.5882 24.7746 21.9765 25.8734 21.6253 27.1309C21.4214 27.8898 21.3874 28.241 21.4327 29.3852C21.512 31.5602 22.1238 32.9875 23.6191 34.4941C24.48 35.3664 25.4089 35.9441 26.7116 36.4312L27.5273 36.7258V40.2148V43.7039L27.7878 43.7719C28.1163 43.8625 29.7816 43.8625 30.2347 43.7719L30.5859 43.6926V40.2148V36.7371L31.5488 36.3746C33.8937 35.491 35.6042 33.7465 36.3632 31.4922C36.7144 30.45 36.7937 28.5355 36.5331 27.3687C36.2499 26.0773 35.5702 24.8086 34.6527 23.857L33.8823 23.0527L33.871 26.7004V30.3594H29.0566H24.2421L24.2195 26.723L24.1855 23.0754L23.4491 23.857Z" fill="#11809C"/>
<path d="M23.4491 23.857C22.5882 24.7746 21.9765 25.8734 21.6253 27.1309C21.4214 27.8898 21.3874 28.241 21.4327 29.3852C21.512 31.5602 22.1238 32.9875 23.6191 34.4941C24.48 35.3664 25.4089 35.9441 26.7116 36.4312L27.5273 36.7258V40.2148V43.7039L27.7878 43.7719C28.1163 43.8625 29.7816 43.8625 30.2347 43.7719L30.5859 43.6926V40.2148V36.7371L31.5488 36.3746C33.8937 35.491 35.6042 33.7465 36.3632 31.4922C36.7144 30.45 36.7937 28.5355 36.5331 27.3687C36.2499 26.0773 35.5702 24.8086 34.6527 23.857L33.8823 23.0527L33.871 26.7004V30.3594H29.0566H24.2421L24.2195 26.723L24.1855 23.0754L23.4491 23.857Z" fill="url(#paint2_linear_107_711)"/>
</g>
<defs>
<linearGradient id="paint0_linear_107_711" x1="28.9661" y1="57.9587" x2="28.9661" y2="1.90735e-05" gradientUnits="userSpaceOnUse">
<stop stop-color="#4AC0DE"/>
<stop offset="1" stop-color="#11809C"/>
</linearGradient>
<linearGradient id="paint1_linear_107_711" x1="28.9985" y1="43.0469" x2="28.9985" y2="14.1884" gradientUnits="userSpaceOnUse">
<stop stop-color="#4AC0DE"/>
<stop offset="1" stop-color="#11809C"/>
</linearGradient>
<linearGradient id="paint2_linear_107_711" x1="29.051" y1="43.8398" x2="29.051" y2="23.0527" gradientUnits="userSpaceOnUse">
<stop stop-color="#4AC0DE"/>
<stop offset="1" stop-color="#11809C"/>
</linearGradient>
<clipPath id="clip0_107_711">
<rect width="58" height="58" fill="white"/>
</clipPath>
</defs>
</svg>
