<svg width="58" height="58" viewBox="0 0 58 58" fill="none" xmlns="http://www.w3.org/2000/svg">
<g clip-path="url(#clip0_107_697)">
<path d="M11.1694 0.135937C11.1468 0.215233 10.9882 1.24609 10.8296 2.41289C10.671 3.59101 10.5124 4.57656 10.4897 4.62187C10.4671 4.66719 10.2065 4.82578 9.92333 4.98438L9.41357 5.25625L7.22724 4.38398C6.02646 3.9082 5.01825 3.55703 4.97294 3.60234C4.75771 3.82891 0.226456 11.8039 0.271768 11.8719C0.294425 11.9172 1.14403 12.5969 2.14091 13.3672L3.96474 14.7832V15.4062V16.0293L2.14091 17.4453C1.14403 18.2156 0.294425 18.8953 0.271768 18.9406C0.181143 19.0766 5.00693 27.3234 5.14286 27.2668C5.21083 27.2328 6.19638 26.8363 7.34052 26.3832L9.41357 25.5562L9.93466 25.8281C10.2179 25.9867 10.4671 26.1793 10.5011 26.2586C10.5351 26.3379 10.705 27.3801 10.8636 28.5809L11.1694 30.7559L15.9952 30.7898L20.821 30.8125L20.8776 30.45C20.9116 30.2461 21.0589 29.2152 21.2061 28.1617L21.4667 26.2473L22.0218 25.8848L22.5882 25.5223L24.7858 26.4172C25.9979 26.9156 26.9948 27.3008 27.0175 27.2781C27.0401 27.2555 31.4354 19.643 31.7866 19.0199C31.8093 18.9859 30.9823 18.2949 29.9628 17.502L28.0936 16.0633V15.4062V14.7492L29.9628 13.3105L31.8319 11.8605L31.5601 11.3961C31.4128 11.1355 30.3366 9.27773 29.1698 7.25C28.003 5.22227 27.0288 3.55703 27.0175 3.53437C26.9948 3.51172 25.9979 3.89687 24.7858 4.39531L22.5882 5.29023L22.0218 4.92773L21.4667 4.56523L21.2061 2.65078C21.0589 1.59727 20.9116 0.566404 20.8776 0.362499L20.821 -1.90735e-06H16.0179C12.2683 -1.90735e-06 11.2034 0.0339832 11.1694 0.135937ZM17.7851 10.7051C19.6089 11.4414 20.753 12.9707 21.0136 15.0324C21.2515 16.8902 20.0167 18.9859 18.1476 19.9035C17.2979 20.3227 17.264 20.334 15.9839 20.334C14.7151 20.334 14.6358 20.3227 13.8769 19.9488C10.8296 18.4648 10.0593 14.5227 12.3136 12.0078C12.9026 11.3508 13.5483 10.943 14.4772 10.6371C15.3042 10.3652 17.0147 10.3992 17.7851 10.7051Z" fill="#11809C"/>
<path d="M11.1694 0.135937C11.1468 0.215233 10.9882 1.24609 10.8296 2.41289C10.671 3.59101 10.5124 4.57656 10.4897 4.62187C10.4671 4.66719 10.2065 4.82578 9.92333 4.98438L9.41357 5.25625L7.22724 4.38398C6.02646 3.9082 5.01825 3.55703 4.97294 3.60234C4.75771 3.82891 0.226456 11.8039 0.271768 11.8719C0.294425 11.9172 1.14403 12.5969 2.14091 13.3672L3.96474 14.7832V15.4062V16.0293L2.14091 17.4453C1.14403 18.2156 0.294425 18.8953 0.271768 18.9406C0.181143 19.0766 5.00693 27.3234 5.14286 27.2668C5.21083 27.2328 6.19638 26.8363 7.34052 26.3832L9.41357 25.5562L9.93466 25.8281C10.2179 25.9867 10.4671 26.1793 10.5011 26.2586C10.5351 26.3379 10.705 27.3801 10.8636 28.5809L11.1694 30.7559L15.9952 30.7898L20.821 30.8125L20.8776 30.45C20.9116 30.2461 21.0589 29.2152 21.2061 28.1617L21.4667 26.2473L22.0218 25.8848L22.5882 25.5223L24.7858 26.4172C25.9979 26.9156 26.9948 27.3008 27.0175 27.2781C27.0401 27.2555 31.4354 19.643 31.7866 19.0199C31.8093 18.9859 30.9823 18.2949 29.9628 17.502L28.0936 16.0633V15.4062V14.7492L29.9628 13.3105L31.8319 11.8605L31.5601 11.3961C31.4128 11.1355 30.3366 9.27773 29.1698 7.25C28.003 5.22227 27.0288 3.55703 27.0175 3.53437C26.9948 3.51172 25.9979 3.89687 24.7858 4.39531L22.5882 5.29023L22.0218 4.92773L21.4667 4.56523L21.2061 2.65078C21.0589 1.59727 20.9116 0.566404 20.8776 0.362499L20.821 -1.90735e-06H16.0179C12.2683 -1.90735e-06 11.2034 0.0339832 11.1694 0.135937ZM17.7851 10.7051C19.6089 11.4414 20.753 12.9707 21.0136 15.0324C21.2515 16.8902 20.0167 18.9859 18.1476 19.9035C17.2979 20.3227 17.264 20.334 15.9839 20.334C14.7151 20.334 14.6358 20.3227 13.8769 19.9488C10.8296 18.4648 10.0593 14.5227 12.3136 12.0078C12.9026 11.3508 13.5483 10.943 14.4772 10.6371C15.3042 10.3652 17.0147 10.3992 17.7851 10.7051Z" fill="url(#paint0_linear_107_697)"/>
<path d="M15.0889 13.9336C14.0807 14.5453 13.9901 15.916 14.885 16.7656C15.3155 17.1508 16.4257 17.2188 16.9694 16.8789C17.3659 16.6297 17.785 15.8821 17.785 15.4063C17.785 14.9305 17.3659 14.1828 16.9694 13.9336C16.471 13.6278 15.5874 13.6278 15.0889 13.9336Z" fill="#11809C"/>
<path d="M15.0889 13.9336C14.0807 14.5453 13.9901 15.916 14.885 16.7656C15.3155 17.1508 16.4257 17.2188 16.9694 16.8789C17.3659 16.6297 17.785 15.8821 17.785 15.4063C17.785 14.9305 17.3659 14.1828 16.9694 13.9336C16.471 13.6278 15.5874 13.6278 15.0889 13.9336Z" fill="url(#paint1_linear_107_697)"/>
<path d="M39.6598 5.94726C38.1645 7.46523 36.9297 8.76797 36.9297 8.83594C36.9297 8.89258 38.1758 10.2066 39.6938 11.7473L42.4691 14.5566L43.7492 13.2879L45.0293 12.0078L44.293 11.2715L43.568 10.5352H44.1797C44.5195 10.5352 45.1766 10.5918 45.6297 10.6484C47.6914 10.9203 49.368 12.4043 49.9117 14.4434C50.025 14.8512 50.0703 15.848 50.0703 17.9211V20.8438H51.8262H53.582V17.7512C53.582 13.877 53.4121 12.982 52.3246 11.1242C51.7922 10.2406 50.3988 8.85859 49.4473 8.29219C48.0539 7.47656 47.091 7.21601 45.2105 7.15937L43.5906 7.11406L44.3043 6.38906L45.0293 5.66406L43.7832 4.41797C43.1035 3.72695 42.5145 3.17188 42.4691 3.17188C42.4352 3.17188 41.1664 4.41797 39.6598 5.94726Z" fill="#11809C"/>
<path d="M39.6598 5.94726C38.1645 7.46523 36.9297 8.76797 36.9297 8.83594C36.9297 8.89258 38.1758 10.2066 39.6938 11.7473L42.4691 14.5566L43.7492 13.2879L45.0293 12.0078L44.293 11.2715L43.568 10.5352H44.1797C44.5195 10.5352 45.1766 10.5918 45.6297 10.6484C47.6914 10.9203 49.368 12.4043 49.9117 14.4434C50.025 14.8512 50.0703 15.848 50.0703 17.9211V20.8438H51.8262H53.582V17.7512C53.582 13.877 53.4121 12.982 52.3246 11.1242C51.7922 10.2406 50.3988 8.85859 49.4473 8.29219C48.0539 7.47656 47.091 7.21601 45.2105 7.15937L43.5906 7.11406L44.3043 6.38906L45.0293 5.66406L43.7832 4.41797C43.1035 3.72695 42.5145 3.17188 42.4691 3.17188C42.4352 3.17188 41.1664 4.41797 39.6598 5.94726Z" fill="url(#paint2_linear_107_697)"/>
<path d="M36.431 26.0773C36.4084 26.1566 36.2498 27.2555 36.0685 28.5129L35.7626 30.8125L35.1396 31.1637L34.5279 31.5035L32.2623 30.5859C31.0162 30.0762 29.974 29.6797 29.9513 29.7023C29.9287 29.7363 28.8072 31.6508 27.4705 33.973C25.7599 36.941 25.0689 38.2438 25.1369 38.3344C25.2048 38.4137 26.0658 39.1047 27.074 39.875L28.8865 41.291V41.9934V42.6957L27.108 44.0777C26.1224 44.8367 25.2501 45.5277 25.1595 45.607C25.0349 45.7203 25.4087 46.4453 27.4705 50.0137C29.6908 53.8426 29.9626 54.273 30.1779 54.2164C30.3138 54.1824 31.3447 53.7746 32.4662 53.3215L34.5166 52.4832L35.1396 52.8344L35.774 53.1855L36.0912 55.5645L36.4197 57.9434H41.4041H46.3884L46.7169 55.5645L47.0341 53.1855L47.6572 52.8344L48.2916 52.4832L50.5345 53.4008C51.9619 53.9785 52.8228 54.273 52.8908 54.2051C52.9474 54.1371 54.0802 52.2113 55.3943 49.923C57.4107 46.434 57.7732 45.7203 57.6486 45.607C57.558 45.5277 56.6857 44.8367 55.7115 44.0777L53.9216 42.6957V41.9934V41.291L55.7341 39.875C56.7423 39.1047 57.6033 38.4137 57.6712 38.3344C57.7505 38.2438 57.0709 36.9637 55.3376 33.9844C54.0009 31.6621 52.8794 29.7363 52.8568 29.7137C52.8341 29.691 51.7919 30.0875 50.5459 30.5859L48.2802 31.5148L47.6798 31.1637L47.0681 30.8238L46.7169 28.4109L46.3771 25.9981L41.4267 25.9641C37.5185 25.9414 36.465 25.9641 36.431 26.0773ZM42.7634 37.0656C43.9642 37.3602 45.2896 38.425 45.8447 39.5465C46.8529 41.5855 46.547 43.6813 44.9837 45.3465C43.058 47.4082 39.7501 47.4082 37.8244 45.3465C36.5443 43.9871 36.1025 42.3898 36.533 40.7246C37.2693 37.8926 39.8974 36.352 42.7634 37.0656Z" fill="#11809C"/>
<path d="M36.431 26.0773C36.4084 26.1566 36.2498 27.2555 36.0685 28.5129L35.7626 30.8125L35.1396 31.1637L34.5279 31.5035L32.2623 30.5859C31.0162 30.0762 29.974 29.6797 29.9513 29.7023C29.9287 29.7363 28.8072 31.6508 27.4705 33.973C25.7599 36.941 25.0689 38.2438 25.1369 38.3344C25.2048 38.4137 26.0658 39.1047 27.074 39.875L28.8865 41.291V41.9934V42.6957L27.108 44.0777C26.1224 44.8367 25.2501 45.5277 25.1595 45.607C25.0349 45.7203 25.4087 46.4453 27.4705 50.0137C29.6908 53.8426 29.9626 54.273 30.1779 54.2164C30.3138 54.1824 31.3447 53.7746 32.4662 53.3215L34.5166 52.4832L35.1396 52.8344L35.774 53.1855L36.0912 55.5645L36.4197 57.9434H41.4041H46.3884L46.7169 55.5645L47.0341 53.1855L47.6572 52.8344L48.2916 52.4832L50.5345 53.4008C51.9619 53.9785 52.8228 54.273 52.8908 54.2051C52.9474 54.1371 54.0802 52.2113 55.3943 49.923C57.4107 46.434 57.7732 45.7203 57.6486 45.607C57.558 45.5277 56.6857 44.8367 55.7115 44.0777L53.9216 42.6957V41.9934V41.291L55.7341 39.875C56.7423 39.1047 57.6033 38.4137 57.6712 38.3344C57.7505 38.2438 57.0709 36.9637 55.3376 33.9844C54.0009 31.6621 52.8794 29.7363 52.8568 29.7137C52.8341 29.691 51.7919 30.0875 50.5459 30.5859L48.2802 31.5148L47.6798 31.1637L47.0681 30.8238L46.7169 28.4109L46.3771 25.9981L41.4267 25.9641C37.5185 25.9414 36.465 25.9641 36.431 26.0773ZM42.7634 37.0656C43.9642 37.3602 45.2896 38.425 45.8447 39.5465C46.8529 41.5855 46.547 43.6813 44.9837 45.3465C43.058 47.4082 39.7501 47.4082 37.8244 45.3465C36.5443 43.9871 36.1025 42.3898 36.533 40.7246C37.2693 37.8926 39.8974 36.352 42.7634 37.0656Z" fill="url(#paint3_linear_107_697)"/>
<path d="M40.7247 40.2601C39.6032 40.7586 39.3087 42.2425 40.1583 43.1035C41.3251 44.259 43.3075 43.3414 43.1263 41.7101C43.0016 40.5547 41.7442 39.7843 40.7247 40.2601Z" fill="#11809C"/>
<path d="M40.7247 40.2601C39.6032 40.7586 39.3087 42.2425 40.1583 43.1035C41.3251 44.259 43.3075 43.3414 43.1263 41.7101C43.0016 40.5547 41.7442 39.7843 40.7247 40.2601Z" fill="url(#paint4_linear_107_697)"/>
<path d="M4.89346 40.5773C4.93877 43.7832 4.96143 44.0664 5.19932 44.8027C6.17354 47.7707 8.39385 49.9004 11.2938 50.648C11.9169 50.8066 12.5399 50.8633 13.5255 50.8633H14.8849L14.1599 51.5996L13.4235 52.3359L14.7036 53.616L15.9837 54.8848L18.7591 52.0867C20.2771 50.5461 21.5231 49.232 21.5231 49.1641C21.5231 49.0961 20.2771 47.782 18.7591 46.2414L15.9837 43.4434L14.7036 44.7121L13.4235 45.9922L14.1599 46.7398L14.8962 47.4875L13.7407 47.4195C13.1177 47.3855 12.2907 47.2609 11.9169 47.1477C10.6481 46.7512 9.54932 45.8223 8.94893 44.6328C8.45049 43.6473 8.38252 43.1602 8.38252 40.0676V37.1562H6.61533H4.84814L4.89346 40.5773Z" fill="#11809C"/>
<path d="M4.89346 40.5773C4.93877 43.7832 4.96143 44.0664 5.19932 44.8027C6.17354 47.7707 8.39385 49.9004 11.2938 50.648C11.9169 50.8066 12.5399 50.8633 13.5255 50.8633H14.8849L14.1599 51.5996L13.4235 52.3359L14.7036 53.616L15.9837 54.8848L18.7591 52.0867C20.2771 50.5461 21.5231 49.232 21.5231 49.1641C21.5231 49.0961 20.2771 47.782 18.7591 46.2414L15.9837 43.4434L14.7036 44.7121L13.4235 45.9922L14.1599 46.7398L14.8962 47.4875L13.7407 47.4195C13.1177 47.3855 12.2907 47.2609 11.9169 47.1477C10.6481 46.7512 9.54932 45.8223 8.94893 44.6328C8.45049 43.6473 8.38252 43.1602 8.38252 40.0676V37.1562H6.61533H4.84814L4.89346 40.5773Z" fill="url(#paint5_linear_107_697)"/>
</g>
<defs>
<linearGradient id="paint0_linear_107_697" x1="16.0512" y1="30.8125" x2="16.0512" y2="0" gradientUnits="userSpaceOnUse">
<stop stop-color="#4AC0DE"/>
<stop offset="1" stop-color="#11809C"/>
</linearGradient>
<linearGradient id="paint1_linear_107_697" x1="16.027" y1="17.0984" x2="16.027" y2="13.7042" gradientUnits="userSpaceOnUse">
<stop stop-color="#4AC0DE"/>
<stop offset="1" stop-color="#11809C"/>
</linearGradient>
<linearGradient id="paint2_linear_107_697" x1="45.2559" y1="20.8438" x2="45.2559" y2="3.17188" gradientUnits="userSpaceOnUse">
<stop stop-color="#4AC0DE"/>
<stop offset="1" stop-color="#11809C"/>
</linearGradient>
<linearGradient id="paint3_linear_107_697" x1="41.4049" y1="57.9434" x2="41.4049" y2="25.9562" gradientUnits="userSpaceOnUse">
<stop stop-color="#4AC0DE"/>
<stop offset="1" stop-color="#11809C"/>
</linearGradient>
<linearGradient id="paint4_linear_107_697" x1="41.4027" y1="43.6209" x2="41.4027" y2="40.1172" gradientUnits="userSpaceOnUse">
<stop stop-color="#4AC0DE"/>
<stop offset="1" stop-color="#11809C"/>
</linearGradient>
<linearGradient id="paint5_linear_107_697" x1="13.1856" y1="54.8848" x2="13.1856" y2="37.1562" gradientUnits="userSpaceOnUse">
<stop stop-color="#4AC0DE"/>
<stop offset="1" stop-color="#11809C"/>
</linearGradient>
<clipPath id="clip0_107_697">
<rect width="58" height="58" fill="white"/>
</clipPath>
</defs>
</svg>
