<svg width="24" height="25" viewBox="0 0 24 25" fill="none" xmlns="http://www.w3.org/2000/svg">
<path d="M8.29 13.6167C8.19627 13.7096 8.12188 13.8202 8.07111 13.9421C8.02034 14.0639 7.9942 14.1946 7.9942 14.3267C7.9942 14.4587 8.02034 14.5894 8.07111 14.7112C8.12188 14.8331 8.19627 14.9437 8.29 15.0367L11.29 18.0367C11.383 18.1304 11.4936 18.2048 11.6154 18.2556C11.7373 18.3063 11.868 18.3325 12 18.3325C12.132 18.3325 12.2627 18.3063 12.3846 18.2556C12.5064 18.2048 12.617 18.1304 12.71 18.0367L15.71 15.0367C15.8983 14.8484 16.0041 14.593 16.0041 14.3267C16.0041 14.0604 15.8983 13.805 15.71 13.6167C15.5217 13.4284 15.2663 13.3226 15 13.3226C14.7337 13.3226 14.4783 13.4284 14.29 13.6167L13 14.9167V3.32666C13 3.06144 12.8946 2.80709 12.7071 2.61955C12.5196 2.43202 12.2652 2.32666 12 2.32666C11.7348 2.32666 11.4804 2.43202 11.2929 2.61955C11.1054 2.80709 11 3.06144 11 3.32666V14.9167L9.71 13.6167C9.61704 13.5229 9.50644 13.4485 9.38458 13.3978C9.26272 13.347 9.13201 13.3209 9 13.3209C8.86799 13.3209 8.73728 13.347 8.61542 13.3978C8.49356 13.4485 8.38296 13.5229 8.29 13.6167ZM18 9.32666H16C15.7348 9.32666 15.4804 9.43202 15.2929 9.61955C15.1054 9.80709 15 10.0614 15 10.3267C15 10.5919 15.1054 10.8462 15.2929 11.0338C15.4804 11.2213 15.7348 11.3267 16 11.3267H18C18.2652 11.3267 18.5196 11.432 18.7071 11.6196C18.8946 11.8071 19 12.0614 19 12.3267V19.3267C19 19.5919 18.8946 19.8462 18.7071 20.0338C18.5196 20.2213 18.2652 20.3267 18 20.3267H6C5.73478 20.3267 5.48043 20.2213 5.29289 20.0338C5.10536 19.8462 5 19.5919 5 19.3267V12.3267C5 12.0614 5.10536 11.8071 5.29289 11.6196C5.48043 11.432 5.73478 11.3267 6 11.3267H8C8.26522 11.3267 8.51957 11.2213 8.70711 11.0338C8.89464 10.8462 9 10.5919 9 10.3267C9 10.0614 8.89464 9.80709 8.70711 9.61955C8.51957 9.43202 8.26522 9.32666 8 9.32666H6C5.20435 9.32666 4.44129 9.64273 3.87868 10.2053C3.31607 10.7679 3 11.531 3 12.3267V19.3267C3 20.1223 3.31607 20.8854 3.87868 21.448C4.44129 22.0106 5.20435 22.3267 6 22.3267H18C18.7956 22.3267 19.5587 22.0106 20.1213 21.448C20.6839 20.8854 21 20.1223 21 19.3267V12.3267C21 11.531 20.6839 10.7679 20.1213 10.2053C19.5587 9.64273 18.7956 9.32666 18 9.32666Z" fill="#11809C"/>
</svg>
