<svg width="40" height="40" viewBox="0 0 40 40" fill="none" xmlns="http://www.w3.org/2000/svg">
<path d="M24.2577 1.25785C23.5624 1.35942 23.4764 1.48442 23.2811 2.65629C23.1874 3.18754 23.1092 3.63285 23.1014 3.64067C23.0936 3.64848 22.7655 3.78129 22.3749 3.92973C21.9842 4.07817 21.5233 4.27348 21.3514 4.35942L21.0389 4.52348L20.2264 3.93754C19.2108 3.21098 19.0624 3.19535 18.3436 3.7266C17.7577 4.17192 16.5624 5.34379 16.1092 5.92192C15.617 6.54692 15.6483 6.71879 16.367 7.75004C16.6874 8.21098 16.953 8.62504 16.953 8.67192C16.953 8.71879 16.867 8.92192 16.7655 9.12504C16.6639 9.32817 16.4842 9.77348 16.3592 10.1172C16.242 10.461 16.1405 10.75 16.1249 10.7657C16.117 10.7813 15.6249 10.875 15.0311 10.9844C13.6717 11.2188 13.6405 11.25 13.5077 12.2266C13.4061 13.0313 13.453 15.2657 13.5936 15.7266C13.6405 15.8829 13.7577 16.0625 13.8514 16.125C13.9452 16.1797 14.4999 16.3125 15.0858 16.4063L16.1483 16.586L16.328 17.1407C16.4217 17.4454 16.617 17.9219 16.7577 18.2032L17.0077 18.711L16.3827 19.6094C15.617 20.6954 15.6014 20.8047 16.0936 21.4532C16.5545 22.0704 17.6561 23.1563 18.328 23.6563C19.078 24.2188 19.1561 24.211 20.2108 23.4532L21.0545 22.8516L21.6405 23.1407C21.9608 23.2969 22.4217 23.4922 22.6639 23.5704L23.1092 23.711L23.242 24.5079C23.4139 25.5938 23.492 25.8438 23.6952 25.9688C23.953 26.1407 25.6717 26.2813 26.6405 26.211C28.2264 26.1094 28.4452 26.0157 28.5467 25.375C28.578 25.1875 28.6483 24.7344 28.7186 24.3672L28.8358 23.6954L29.2811 23.5547C29.5233 23.4844 29.9764 23.2969 30.2889 23.1563C30.5936 23.0079 30.867 22.8907 30.8905 22.8907C30.9217 22.8907 31.3124 23.1563 31.7733 23.4766C32.7967 24.2032 32.8827 24.211 33.6327 23.6485C34.2889 23.1641 35.3905 22.0782 35.8436 21.4766C36.328 20.836 36.3045 20.6954 35.5545 19.6094L34.9452 18.7188L35.203 18.1641C35.3436 17.8594 35.5311 17.3829 35.6249 17.1016L35.7889 16.6016L36.9295 16.3907C37.578 16.2735 38.117 16.1329 38.1874 16.0704C38.3514 15.9063 38.4295 15.4219 38.4842 14.2188C38.5155 13.5625 38.4999 12.8516 38.4452 12.3438C38.3202 11.2813 38.2577 11.211 37.3045 11.0547C36.9139 10.9844 36.4217 10.8985 36.1952 10.8516L35.7889 10.7735L35.617 10.25C35.5233 9.96098 35.328 9.4766 35.1952 9.17192L34.9374 8.61723L35.117 8.39067C35.7264 7.59379 36.1717 6.83598 36.1717 6.6016C36.1717 6.14848 34.8749 4.69535 33.5936 3.71098C32.8749 3.15629 32.7499 3.17192 31.703 3.93754L30.867 4.54692L30.6092 4.39067C30.4686 4.30473 30.0155 4.1016 29.6092 3.94535C29.203 3.78129 28.8592 3.64067 28.8436 3.63285C28.8358 3.62504 28.7499 3.19535 28.6639 2.68754C28.492 1.68754 28.3905 1.44535 28.0624 1.31254C27.7889 1.20317 24.8749 1.15629 24.2577 1.25785ZM27.5155 7.64848C29.6092 8.18754 31.2967 9.82035 31.9686 11.9532C32.1249 12.4532 32.1483 12.7032 32.1483 13.6719C32.1483 14.6407 32.1249 14.8907 31.9686 15.3907C31.4139 17.1485 30.2967 18.4766 28.7108 19.2579C27.6795 19.7735 27.1874 19.8829 25.9374 19.8829C25.0545 19.8829 24.7889 19.8516 24.2967 19.6954C22.2499 19.0625 20.7342 17.625 20.0702 15.6797C19.1092 12.8829 20.242 9.85942 22.8436 8.2891C23.3592 7.98442 24.4139 7.6016 25.0545 7.50004C25.6952 7.39848 26.8124 7.46879 27.5155 7.64848Z" fill="white"/>
<path d="M1.48438 31.0937V37.9688L3.89062 37.9219C6.13281 37.875 6.3125 37.8672 6.64062 37.7109C7.14844 37.4609 7.34375 37.1328 7.34375 36.4922C7.34375 36.2109 7.27344 33.5469 7.17969 30.5859C7.0625 26.7109 6.98438 25.125 6.91406 24.9531C6.85938 24.8203 6.67969 24.6094 6.51562 24.4844L6.22656 24.2578L3.85156 24.2344L1.48438 24.2109V31.0937ZM4.01562 33.6797C4.41406 33.9922 4.16406 34.6875 3.65625 34.6875C3.375 34.6875 3.04688 34.375 3.04688 34.1172C3.04688 33.8828 3.39844 33.5156 3.63281 33.5156C3.72656 33.5156 3.89844 33.5859 4.01562 33.6797Z" fill="white"/>
<path d="M8.73438 25.836L8.13281 25.8672L8.16406 26.0782C8.17969 26.1954 8.25781 28.5079 8.32813 31.2188L8.46875 36.1485L9.36719 36.1954C11.0781 36.2813 11.8672 36.5235 14.1016 37.6251C16.2813 38.7032 16.6172 38.7891 18.4766 38.7813C19.6484 38.7813 19.9766 38.7501 20.4297 38.6172C20.7344 38.5313 24.6172 36.961 29.0625 35.1251C35.4219 32.5001 37.2031 31.7344 37.4063 31.5391C37.8281 31.1407 37.9922 30.7422 37.9922 30.1407C37.9922 29.1329 37.3047 28.3672 36.3438 28.2969C35.9375 28.2657 35.4297 28.4141 30.5469 29.961C27.6016 30.8985 25.1172 31.7266 25.0156 31.8047C24.5547 32.1641 24.2734 32.1954 20.2188 32.2969C18.1016 32.3438 16.2891 32.3672 16.1953 32.3282C15.9453 32.2501 15.7578 31.9141 15.8125 31.6797C15.9141 31.2657 15.9219 31.2657 20.0391 31.1719C22.1484 31.1251 23.9766 31.0469 24.1172 31.0079C24.6953 30.8282 25.0234 30.3594 25.0234 29.7188C25.0234 29.2266 24.7969 28.7891 24.3984 28.5157C24.0781 28.2969 24.2656 28.3047 20.7031 28.3516C17.4922 28.4063 16.9531 28.2891 14.375 26.9844C12.8438 26.2032 12.2188 26.0001 11.0156 25.8594C10.375 25.7891 10.0234 25.7813 8.73438 25.836Z" fill="white"/>
</svg>
