<svg width="37" height="36" viewBox="0 0 37 36" fill="none" xmlns="http://www.w3.org/2000/svg">
<g clip-path="url(#clip0_107_824)">
<path d="M28.2103 2.46795C28.1119 2.50311 27.908 2.64374 27.7533 2.7703C27.0009 3.38905 25.7353 4.07108 24.7931 4.38045C23.9002 4.67577 23.3236 4.78827 22.3533 4.85155C21.3478 4.91483 21.0806 5.0203 20.8627 5.42811C20.7502 5.63905 20.7431 5.93436 20.7713 9.17577C20.7994 13.05 20.7923 13.0078 21.2845 14.4703C22.3041 17.55 24.7439 19.9828 27.8658 21.0305C28.6392 21.2976 28.7939 21.2765 29.9681 20.8195C31.2619 20.3133 32.4431 19.5258 33.4767 18.4851C34.6228 17.339 35.4736 15.968 35.9658 14.4844C36.458 13.0008 36.4509 13.05 36.4791 9.17577C36.5072 5.93436 36.5002 5.63905 36.3877 5.42811C36.1697 5.0203 35.9025 4.91483 34.897 4.85155C33.4697 4.75311 32.3939 4.4578 31.1564 3.82499C30.7486 3.61405 30.1369 3.23436 29.7923 2.98124C29.4548 2.72811 29.0963 2.49608 28.9978 2.45389C28.7798 2.37655 28.4283 2.37655 28.2103 2.46795ZM32.4642 8.2617C32.865 8.52186 33.0338 9.13358 32.8158 9.54842C32.7595 9.65389 31.6556 10.7859 30.3689 12.0726C28.5408 13.8937 27.9783 14.407 27.8025 14.4492C27.3103 14.5476 27.1838 14.4633 25.8267 13.1203C25.1166 12.4242 24.4908 11.7633 24.4345 11.6578C24.1673 11.1445 24.4556 10.4484 25.0181 10.2586C25.5103 10.0969 25.7002 10.2023 26.6775 11.1656L27.5705 12.0515L29.49 10.1461C30.5377 9.09139 31.4798 8.19842 31.5783 8.16327C31.8103 8.06483 32.2392 8.11405 32.4642 8.2617Z" fill="white"/>
<path d="M1.0625 6.80625C0.928906 6.86953 0.746094 7.03125 0.661719 7.16484L0.5 7.40391V12.832V18.2602L0.661719 18.4992C0.746094 18.6328 0.928906 18.7945 1.0625 18.8578C1.29453 18.9773 1.93438 18.9844 11.3914 18.9844H21.4672L21.3547 18.8227C19.6672 16.5234 18.8867 14.4281 18.7109 11.7422C18.6758 11.1445 18.6406 9.75938 18.6406 8.6625V6.67969H9.97813C1.86406 6.67969 1.29453 6.68672 1.0625 6.80625ZM14.4219 11.9391C15.1672 12.3117 15.1672 13.3523 14.4219 13.725C14.1969 13.8445 13.8383 13.8516 10.0273 13.8516C6.21641 13.8516 5.85781 13.8445 5.63281 13.725C4.8875 13.3523 4.8875 12.3117 5.63281 11.9391C5.85781 11.8195 6.21641 11.8125 10.0273 11.8125C13.8383 11.8125 14.1969 11.8195 14.4219 11.9391Z" fill="white"/>
<path d="M1.0625 21.4313C0.928906 21.4945 0.746094 21.6562 0.661719 21.7898L0.5 22.0289V27.457V32.8852L0.661719 33.1242C0.746094 33.2578 0.928906 33.4195 1.0625 33.4828C1.29453 33.6023 2.1875 33.6094 16.7422 33.6094C31.2969 33.6094 32.1898 33.6023 32.4219 33.4828C32.5555 33.4195 32.7383 33.2578 32.8227 33.1242L32.9844 32.8852V27.4852C32.9844 22.2539 32.9633 21.7266 32.7805 21.7266C32.7594 21.7266 32.3094 21.9445 31.782 22.2117C29.6937 23.2664 28.6672 23.4492 27.3242 22.9992C26.4805 22.718 25.1234 22.0711 24.4414 21.6281L23.9492 21.3047H12.6289C1.99062 21.3047 1.29453 21.3117 1.0625 21.4313ZM23.4852 25.5797C23.5836 25.65 23.7312 25.8188 23.8086 25.9523C23.9352 26.1703 23.9492 26.318 23.9492 27.5273C23.9492 28.7367 23.9352 28.8844 23.8086 29.1023C23.5906 29.475 23.3234 29.6367 22.9297 29.6367C22.5359 29.6367 22.2687 29.475 22.0508 29.1023C21.9312 28.8984 21.9102 28.7016 21.882 27.8578C21.8539 26.6344 21.9031 26.1633 22.107 25.8609C22.4234 25.3898 23.0633 25.2633 23.4852 25.5797ZM27.9852 25.5797C28.0836 25.65 28.2312 25.8188 28.3086 25.9523C28.4352 26.1703 28.4492 26.318 28.4492 27.5273C28.4492 28.7367 28.4352 28.8844 28.3086 29.1023C28.0906 29.475 27.8234 29.6367 27.4297 29.6367C27.0359 29.6367 26.7687 29.475 26.5508 29.1023C26.4312 28.8984 26.4102 28.7016 26.382 27.8578C26.3539 26.6344 26.4031 26.1633 26.607 25.8609C26.9234 25.3898 27.5633 25.2633 27.9852 25.5797ZM14.4219 26.6344C15.1672 27.007 15.1672 28.0477 14.4219 28.4203C14.1969 28.5398 13.8383 28.5469 10.0273 28.5469C5.40078 28.5469 5.5625 28.5609 5.23203 28.0617C4.90859 27.5766 5.09844 26.9016 5.63281 26.6344C5.85781 26.5148 6.21641 26.5078 10.0273 26.5078C13.8383 26.5078 14.1969 26.5148 14.4219 26.6344Z" fill="white"/>
</g>
<defs>
<clipPath id="clip0_107_824">
<rect width="36" height="36" fill="white" transform="translate(0.5)"/>
</clipPath>
</defs>
</svg>
