<svg width="40" height="40" viewBox="0 0 40 40" fill="none" xmlns="http://www.w3.org/2000/svg">
<path d="M18.0625 2.65625C17.6016 2.9375 17.5 3.21094 17.5 4.15625V5H24.3203C28.125 5 31.2656 5.03125 31.4375 5.07812C31.8203 5.16406 32.1016 5.36719 32.3047 5.71094C32.4453 5.95312 32.4609 6.14062 32.4844 7.98438L32.5078 10H33.7578H35V6.65625C35 3.46875 34.9922 3.3125 34.8438 3.0625C34.7578 2.92188 34.5781 2.74219 34.4375 2.65625C34.1875 2.5 34.0234 2.5 26.25 2.5C18.4766 2.5 18.3125 2.5 18.0625 2.65625Z" fill="white"/>
<path d="M14.3125 6.40625C13.8516 6.6875 13.75 6.96094 13.75 7.90625V8.75H20.5703C24.375 8.75 27.5156 8.78125 27.6875 8.82812C28.0703 8.91406 28.3516 9.11719 28.5547 9.46094C28.6953 9.70312 28.7109 9.89062 28.7344 11.7344L28.7578 13.75H30.0078H31.25V10.4062C31.25 7.21875 31.2422 7.0625 31.0938 6.8125C31.0078 6.67188 30.8281 6.49219 30.6875 6.40625C30.4375 6.25 30.2734 6.25 22.5 6.25C14.7266 6.25 14.5625 6.25 14.3125 6.40625Z" fill="white"/>
<path d="M10.5625 10.1562C10.4219 10.2422 10.2422 10.4219 10.1562 10.5625C10.0078 10.8125 10 10.9688 10 16.25C10 21.5312 10.0078 21.6875 10.1562 21.9375C10.2422 22.0781 10.4219 22.2578 10.5625 22.3438C10.8125 22.5 10.9766 22.5 18.75 22.5C26.5234 22.5 26.6875 22.5 26.9375 22.3438C27.0781 22.2578 27.2578 22.0781 27.3438 21.9375C27.4922 21.6875 27.5 21.5312 27.5 16.25C27.5 10.9688 27.4922 10.8125 27.3438 10.5625C27.2578 10.4219 27.0781 10.2422 26.9375 10.1562C26.6875 10 26.5234 10 18.75 10C10.9766 10 10.8125 10 10.5625 10.1562ZM15.4922 12.6641C15.7344 12.7891 18.4297 15.4688 18.5625 15.7188C18.6953 15.9688 18.7031 16.5078 18.5859 16.7422C18.4609 16.9844 15.7812 19.6797 15.5312 19.8125C15.0234 20.0781 14.2969 19.8672 13.9844 19.3594C13.8125 19.0703 13.7734 18.5312 13.9141 18.2578C13.9609 18.1641 14.4062 17.6719 14.9062 17.1641L15.8203 16.25L14.9062 15.3281C14.4062 14.8281 13.9609 14.3359 13.9141 14.2422C13.7734 13.9688 13.8125 13.4297 13.9844 13.1406C14.2812 12.6562 15.0156 12.4219 15.4922 12.6641ZM23.0469 17.7031C23.8828 18.1953 23.8828 19.3047 23.0469 19.7969C22.7969 19.9453 22.6484 19.9609 21.25 19.9609C19.8516 19.9609 19.7031 19.9453 19.4531 19.7969C18.4688 19.2266 18.6797 17.8516 19.7891 17.5703C19.9219 17.5391 20.6562 17.5156 21.4062 17.5234C22.625 17.5391 22.8047 17.5547 23.0469 17.7031Z" fill="white"/>
<path d="M6.5 15.1641C5.94531 15.3828 5.375 15.9531 5.16406 16.5234C5 16.9531 5 17.0547 5 24.1016V31.25H20H35V24.1016C35 17.0547 35 16.9531 34.8359 16.5234C34.6172 15.9453 34.0547 15.3828 33.4766 15.1641C33.0703 15.0156 32.8828 15 30.8984 15H28.7578L28.7344 18.8828C28.7109 22.6094 28.7031 22.7812 28.5547 23.0391C28.3516 23.3828 28.0703 23.5859 27.6875 23.6719C27.2812 23.7656 10.2188 23.7656 9.8125 23.6719C9.42969 23.5859 9.14844 23.3828 8.94531 23.0391C8.79688 22.7812 8.78906 22.6094 8.76562 18.8828L8.74219 15L7.82812 15.0078C7.10156 15.0078 6.82812 15.0391 6.5 15.1641Z" fill="white"/>
<path d="M3.125 32.6797C2.66406 32.9219 2.5 33.25 2.5 33.9531C2.5 35.4766 3.5625 36.8828 5.07031 37.3438C5.55469 37.5 5.875 37.5 20 37.5C34.125 37.5 34.4453 37.5 34.9297 37.3438C36.4844 36.8672 37.5625 35.3906 37.4844 33.8438C37.4531 33.1406 37.3203 32.8984 36.8281 32.6562C36.5156 32.5 36.3984 32.5 19.9844 32.5H3.46094L3.125 32.6797Z" fill="white"/>
</svg>
