<svg width="40" height="40" viewBox="0 0 40 40" fill="none" xmlns="http://www.w3.org/2000/svg">
<g clip-path="url(#clip0_107_791)">
<path d="M6.56237 0.0703087C4.85143 0.593746 4.10924 2.63281 5.07799 4.13281C5.39049 4.61718 5.99987 5.09375 6.42955 5.20312L6.64049 5.25V6.95312V8.65625L6.11705 8.74218C3.32799 9.21875 1.15612 11.1406 0.273304 13.9062C0.0154914 14.7187 -0.0782586 16.3047 0.0701789 17.2109C0.382679 19.0312 1.30455 20.6016 2.73424 21.7422L3.32018 22.2109L3.35924 20.8906C3.40612 19.375 3.50768 19.0469 4.07799 18.5625C4.64049 18.0781 4.8358 18.0469 7.37487 18.0547C8.90612 18.0547 9.72643 18.0859 9.8983 18.1484C10.4217 18.3437 10.8592 18.7344 11.078 19.2031C11.2733 19.6172 11.2889 19.7422 11.3124 20.9141L11.3436 22.1875L11.6952 21.9375C12.953 21.0312 14.078 19.3828 14.4296 17.9141L14.5702 17.3516L16.0155 18.4844C17.0155 19.2656 17.453 19.6562 17.4374 19.75C17.4296 19.8203 17.3905 20.0547 17.3514 20.2734C17.2264 20.9766 17.4686 21.8594 17.9374 22.4141C18.2108 22.7422 18.8358 23.1406 19.2655 23.2656C20.5702 23.6406 22.0311 22.9141 22.5077 21.6484C23.0077 20.3203 22.4061 18.8203 21.1327 18.2266C20.7342 18.0391 20.5624 18.0078 19.9999 18.0078C19.4061 18.0078 19.2733 18.0391 18.8436 18.25L18.3592 18.4922L16.5467 17.0703L14.7264 15.6562L14.6717 15.2734C14.4452 13.7812 14.0936 12.8281 13.3983 11.8281L13.0702 11.3516L14.5467 10.0859C15.3592 9.39062 16.0546 8.84375 16.0858 8.86718C16.1249 8.88281 16.1796 9.03906 16.2108 9.19531C16.3671 10.0547 17.1639 11.5078 17.953 12.3594C18.3514 12.7812 19.2186 13.5156 19.328 13.5156C19.3514 13.5156 19.3749 12.9453 19.3749 12.2422C19.3749 10.8047 19.453 10.5234 19.9842 9.97656C20.5233 9.42187 20.7889 9.375 23.3827 9.375C25.6092 9.375 25.6717 9.38281 26.0546 9.5625C26.4921 9.76562 26.8905 10.125 27.0858 10.5C27.1639 10.6484 27.2342 11.0391 27.2655 11.5469C27.3124 12.2656 27.3436 12.375 27.5233 12.5625C27.7264 12.7812 30.2577 17.4297 30.203 17.4844C30.1796 17.5 29.8905 17.6094 29.5467 17.7266C27.2499 18.5234 25.4374 20.5234 24.8358 22.9297C24.5936 23.8984 24.5936 25.4609 24.8358 26.3594C24.9296 26.7031 24.9764 27.0078 24.9452 27.0391C24.9061 27.0703 24.3202 27.5234 23.6405 28.0312L22.3905 28.9687L22.0311 28.4453C21.0389 27.0469 19.5311 25.9922 17.8514 25.5312C17.3358 25.3906 17.0155 25.3594 15.9764 25.3594C14.8983 25.3516 14.6405 25.375 14.1092 25.5312C11.2577 26.3516 9.24205 28.5781 8.74205 31.4453L8.65612 31.9531H6.9608H5.2733L5.09362 31.5234C4.86705 31.0156 4.3983 30.5312 3.86705 30.25C3.29674 29.9609 2.32799 29.9141 1.67955 30.1562C1.03893 30.3984 0.398304 31.0391 0.156116 31.6797C-0.0860711 32.3281 -0.0391961 33.2969 0.249866 33.8672C1.01549 35.3516 2.85924 35.8047 4.24205 34.8516C4.60924 34.6016 5.11705 33.9219 5.20299 33.5703L5.24987 33.3594H6.9608H8.66393L8.7108 33.6484C8.95299 35.2422 9.61705 36.6094 10.703 37.7656C11.078 38.1641 11.8749 38.8281 11.9842 38.8281C11.9999 38.8281 12.0311 38.2344 12.0467 37.5156C12.0702 36.2891 12.0858 36.1797 12.2733 35.8203C12.5155 35.3437 12.9921 34.9609 13.5624 34.7969C13.9139 34.6953 14.3592 34.6797 16.1874 34.7031C18.2342 34.7266 18.4217 34.7422 18.7499 34.8906C19.1952 35.1016 19.5858 35.4922 19.7889 35.9375C19.9217 36.2266 19.953 36.5156 19.9921 37.5703L20.0389 38.8594L20.6639 38.3516C20.9999 38.0781 21.4686 37.625 21.6952 37.3437C22.1717 36.75 22.8124 35.5547 23.0155 34.8828C23.0936 34.625 23.1639 34.4062 23.1717 34.3906C23.1796 34.3672 27.3436 36.375 27.3983 36.4297C27.4139 36.4531 27.3983 36.6562 27.3592 36.8828C27.1483 38.0469 27.7655 39.25 28.828 39.7578C29.1952 39.9297 29.3592 39.9609 29.9999 39.9609C30.6405 39.9609 30.8046 39.9297 31.1717 39.7578C32.828 38.9687 33.203 36.7344 31.8983 35.4219C31.0467 34.5703 29.7967 34.4062 28.6796 35L28.2342 35.2422L25.8202 34.0625L23.3983 32.8828L23.3436 32.1641C23.3124 31.7656 23.2186 31.1875 23.1405 30.875L22.9921 30.3125L24.0546 29.5156C24.6405 29.0781 25.2264 28.6406 25.3671 28.5312L25.6171 28.3437L25.8592 28.7187C26.2264 29.2969 26.9139 30.0469 27.4921 30.4766L28.0077 30.875L28.0467 29.5156C28.078 28.3281 28.1092 28.125 28.2499 27.8516C28.4921 27.4062 28.8046 27.1172 29.2733 26.8984C29.6717 26.7109 29.6874 26.7109 32.0858 26.7344C34.7655 26.7578 34.8124 26.7656 35.3749 27.3281C35.8671 27.8281 35.9374 28.0781 35.9374 29.5469C35.9374 30.2734 35.9608 30.8594 35.9842 30.8594C36.0936 30.8594 36.9686 30.1172 37.3827 29.6719C38.2733 28.7187 38.8671 27.5859 39.1952 26.2656C39.3905 25.4687 39.3671 23.6641 39.1561 22.875C38.3124 19.7578 35.8202 17.6406 32.6405 17.3437C32.1561 17.2969 31.7577 17.25 31.7421 17.2422C31.7342 17.2266 31.1014 16.0703 30.3514 14.6641L28.9764 12.1094L29.3202 11.625C29.9686 10.7187 30.3983 9.66406 30.5546 8.64843C30.6014 8.34375 30.6639 8.02343 30.6952 7.95312C30.7342 7.83593 31.0155 7.94531 32.7342 8.78125C34.5702 9.66406 34.7264 9.75781 34.703 9.92968C34.6952 10.0312 34.6796 10.3828 34.6717 10.7109C34.6717 11.2031 34.703 11.3906 34.8749 11.7656C35.8358 13.8672 38.7577 13.8828 39.7811 11.8047C39.9296 11.5078 39.9608 11.3203 39.9608 10.6641C39.9608 9.99218 39.9374 9.82812 39.7733 9.49218C39.5155 8.97656 38.9921 8.46875 38.453 8.21875C38.078 8.03906 37.8983 8.00781 37.3358 8.00781C36.7186 8.00781 36.6171 8.03125 36.1171 8.28906L35.578 8.5625L33.1639 7.39843C31.828 6.75781 30.703 6.19531 30.6561 6.14843C30.6092 6.09375 30.5155 5.79687 30.4452 5.47656C29.9842 3.5 28.4217 1.59375 26.5233 0.695309C25.3592 0.148434 24.828 0.0390587 23.3202 0.0390587C21.8358 0.0390587 21.3046 0.148434 20.1796 0.664059C17.9921 1.67968 16.3046 3.95312 16.0546 6.25C16.0311 6.48437 15.9921 6.75 15.9764 6.84375C15.9452 6.97656 12.8046 9.76562 12.1717 10.2187C12.0546 10.3047 11.9764 10.2812 11.6249 10.0156C10.8358 9.42187 9.67955 8.9375 8.60924 8.75L8.04674 8.64843V6.96093V5.27343L8.47643 5.09375C8.98424 4.86718 9.46862 4.39843 9.74987 3.86718C10.0389 3.29687 10.0858 2.32812 9.84362 1.67968C9.60143 1.03906 8.9608 0.398434 8.3358 0.164059C7.87487 -0.00781631 6.97643 -0.0546913 6.56237 0.0703087ZM24.2733 2.90625C24.8983 3.14062 25.5389 3.78125 25.7733 4.41406C26.4686 6.25781 24.8124 8.28125 22.9139 7.89843C20.9217 7.5 20.0702 5.3125 21.2889 3.71875C21.5389 3.39062 22.203 2.9375 22.578 2.82812C23.0624 2.6875 23.7889 2.71875 24.2733 2.90625ZM8.25768 11.5703C8.79674 11.7812 9.39049 12.3047 9.67174 12.8516C9.85143 13.1953 9.88268 13.3359 9.88268 13.9844C9.88268 14.8594 9.71862 15.2891 9.15612 15.8437C7.93737 17.0625 5.87487 16.7578 5.04674 15.2422C4.25768 13.7891 5.0233 11.9687 6.64049 11.4766C7.03893 11.3594 7.79674 11.4062 8.25768 11.5703ZM32.9452 20.25C33.5702 20.4844 34.2108 21.125 34.4452 21.7578C35.0155 23.2734 34.0389 24.9375 32.4061 25.2344C30.7967 25.5312 29.2108 24.0391 29.3983 22.4062C29.5077 21.4922 30.2186 20.5625 31.0389 20.2422C31.6014 20.0234 32.3592 20.0312 32.9452 20.25ZM17.1327 28.3437C18.0311 28.7891 18.5311 29.5469 18.578 30.5469C18.6874 32.8828 15.9452 34.1641 14.2577 32.5703C13.1639 31.5312 13.1092 29.9453 14.1249 28.8828C14.9608 28.0156 16.0624 27.8203 17.1327 28.3437Z" fill="white"/>
<path d="M22.6951 4.13289C21.6248 4.68757 21.7732 6.25789 22.9295 6.6407C23.5545 6.85164 24.3279 6.49226 24.5779 5.88289C24.8201 5.30476 24.617 4.56257 24.1248 4.21101C23.7732 3.9532 23.1092 3.92195 22.6951 4.13289Z" fill="white"/>
<path d="M6.67178 12.7969C5.45303 13.5703 5.92178 15.3516 7.35146 15.3516C7.8749 15.3516 8.25771 15.125 8.52334 14.6641C8.65615 14.4219 8.67959 14.2734 8.65615 13.8984C8.61709 13.4062 8.47646 13.1406 8.10146 12.8594C7.78896 12.6328 6.9999 12.5937 6.67178 12.7969Z" fill="white"/>
<path d="M31.2969 21.5078C30.9297 21.711 30.625 22.2344 30.625 22.6485C30.625 22.8047 30.7031 23.0938 30.8047 23.2813C31.2109 24.1016 32.2266 24.2813 32.9297 23.6641C33.6172 23.0625 33.4375 21.7813 32.6094 21.4375C32.2188 21.2735 31.6562 21.3047 31.2969 21.5078Z" fill="white"/>
<path d="M15.4061 29.4296C14.4686 29.8905 14.3827 31.1796 15.242 31.8202C15.742 32.1874 16.6873 32.0312 17.0858 31.5077C17.3905 31.1171 17.4217 30.4062 17.1717 29.9609C16.8436 29.3905 15.9998 29.1327 15.4061 29.4296Z" fill="white"/>
<path d="M20.9922 10.7499C20.875 10.8124 20.7422 10.9531 20.7031 11.0624C20.6562 11.1718 20.625 11.9218 20.625 12.7343V14.2031L21 14.3281C22.3828 14.789 24.0938 14.8046 25.5 14.3671L26.0156 14.2109V12.6249V11.039L25.8125 10.8515L25.6094 10.664L23.4141 10.6484C21.5547 10.6327 21.1797 10.6484 20.9922 10.7499Z" fill="white"/>
<path d="M4.99219 19.4141C4.66406 19.5937 4.60938 19.8984 4.60938 21.4453V22.8672L5.17969 23.0391C6.64062 23.4687 8.09375 23.4766 9.48438 23.0391L10 22.8828V21.3047C9.99219 19.6562 9.97656 19.5703 9.63281 19.3906C9.36719 19.2422 5.25781 19.2656 4.99219 19.4141Z" fill="white"/>
<path d="M29.5234 28.1953L29.2969 28.4219V29.9844V31.5391L29.8672 31.7109C30.6406 31.9375 31.25 32.0312 31.9922 32.0312C32.7344 32.0312 33.3438 31.9375 34.1172 31.7109L34.6875 31.5391V29.9531V28.375L34.4453 28.1719L34.2031 27.9688H31.9766H29.75L29.5234 28.1953Z" fill="white"/>
<path d="M13.8594 35.9922C13.7656 36.0078 13.6094 36.1094 13.5078 36.2187C13.3281 36.414 13.3203 36.4609 13.2969 37.9687L13.2734 39.5234L13.7891 39.6797C14.6641 39.9531 15.2734 40.0234 16.3594 39.9765C17.1094 39.9453 17.5469 39.8906 18.0078 39.7578L18.6328 39.5703V37.9375V36.3047L18.4141 36.1406C18.2031 35.9844 18.0938 35.9765 16.1094 35.9687C14.9609 35.9609 13.9453 35.9687 13.8594 35.9922Z" fill="white"/>
</g>
<defs>
<clipPath id="clip0_107_791">
<rect width="40" height="40" fill="white"/>
</clipPath>
</defs>
</svg>
