<svg width="36" height="36" viewBox="0 0 36 36" fill="none" xmlns="http://www.w3.org/2000/svg">
<path d="M16.6641 2.07422C14.9062 2.43281 13.6687 3.42422 13.2047 4.85859L13.057 5.32266L12.6422 5.37188C12.1148 5.42109 11.3555 5.68828 10.8422 5.99063C10.3008 6.30703 9.44297 7.17891 9.11953 7.73438C8.27578 9.18984 8.26172 11.1375 9.08437 12.5789C9.59062 13.4648 10.3711 14.175 11.3344 14.625C12.1219 14.9906 12.5437 15.0469 14.8219 15.0469H16.875V16.3828V17.7188H11.5594C5.68125 17.7188 5.94141 17.6977 5.60391 18.1688C5.44922 18.3797 5.44922 18.4289 5.42812 20.932L5.40703 23.4703L4.18359 23.4984C2.83359 23.5195 2.74922 23.5477 2.41172 24.0469L2.25 24.2789V28.7578V33.2367L2.41172 33.4758C2.49609 33.6094 2.70703 33.7852 2.88281 33.8766C3.19219 34.0312 3.21328 34.0312 6.50391 34.0312C8.45859 34.0312 9.90703 34.0031 10.0477 33.9609C10.3711 33.8695 10.7437 33.5039 10.8281 33.1875C10.8703 33.0398 10.8984 31.5563 10.8984 29.5312V26.1211L10.4203 25.4883C10.1602 25.1438 9.71016 24.6164 9.42188 24.3141C8.89453 23.7797 8.89453 23.7727 8.31797 23.6461L7.73438 23.5195V21.7828V20.0391H12.3047H16.875V21.7617V23.4844H15.8062C15.2156 23.4844 14.618 23.5195 14.4703 23.5547C14.1117 23.6602 13.732 24.0961 13.6758 24.4828C13.6547 24.6516 13.6406 26.6695 13.6547 28.9688C13.6758 33.6094 13.6547 33.3703 14.1539 33.7781L14.4281 33.9961L17.7398 34.0172C19.568 34.0312 21.1922 34.0172 21.3609 33.9961C21.7828 33.9328 22.1766 33.5742 22.282 33.1523C22.3312 32.9484 22.3594 31.725 22.3594 29.4961V26.1422L21.8742 25.5023C21.607 25.1438 21.1781 24.6234 20.925 24.3492C20.4961 23.8922 20.4047 23.8289 19.9828 23.7023C19.7227 23.625 19.4273 23.5406 19.3219 23.5195L19.125 23.4844V21.7617V20.0391H23.6953H28.2656V21.7547V23.4703L27.0914 23.4984C25.7695 23.5195 25.5586 23.5898 25.2773 24.0609C25.1437 24.2859 25.1367 24.4406 25.1156 28.5117C25.1016 30.832 25.1156 32.8641 25.1367 33.0328C25.193 33.4195 25.5727 33.8555 25.9312 33.9609C26.093 34.0031 27.4781 34.0312 29.4961 34.0312C32.7867 34.0312 32.8078 34.0312 33.1172 33.8695C33.293 33.7852 33.5039 33.6094 33.5883 33.4758L33.75 33.2367V29.6438V26.0508L33.1945 25.3125C32.3016 24.1383 31.957 23.8008 31.4859 23.6672C31.268 23.6039 31.0148 23.5547 30.9234 23.5547C30.5859 23.5547 30.593 23.5898 30.5719 20.918C30.5508 18.4289 30.5508 18.3797 30.3961 18.1688C30.0586 17.6977 30.3187 17.7188 24.4406 17.7188H19.125V16.3828V15.0469H21.5227C24.2367 15.0469 24.5391 15.0117 25.4883 14.5547C26.4797 14.0766 27.2531 13.2961 27.7453 12.2766C28.4203 10.8703 28.3289 8.98594 27.5203 7.65C26.7117 6.32812 25.2773 5.44219 23.7797 5.35781L23.1328 5.32266L22.8375 4.75313C22.6125 4.32422 22.3875 4.02891 21.9023 3.54375C21.3398 2.97422 21.1781 2.85469 20.5312 2.54531C20.1234 2.34844 19.568 2.1375 19.2867 2.08125C18.675 1.94766 17.318 1.94062 16.6641 2.07422Z" fill="white"/>
</svg>
