<svg width="41" height="40" viewBox="0 0 41 40" fill="none" xmlns="http://www.w3.org/2000/svg">
<g clip-path="url(#clip0_107_802)">
<path d="M15.8594 0.328125C15.8281 0.515625 15.7578 1.20312 15.6953 1.86719C15.6328 2.53125 15.5703 3.07812 15.5625 3.08594C15.5469 3.09375 15.1562 3.23438 14.6797 3.39062C14.2109 3.55469 13.3984 3.89062 12.875 4.13281L11.9297 4.58594L10.7891 3.66406C10.1562 3.14844 9.61719 2.73438 9.58594 2.73438C9.54688 2.73438 8.08594 4.17188 6.32812 5.92969C4.03906 8.21875 3.15625 9.15625 3.20312 9.22656C3.23438 9.28906 3.63281 9.78906 4.09375 10.3516C4.55469 10.9062 4.94531 11.4062 4.97656 11.4531C5.00781 11.5078 4.83594 11.9453 4.60938 12.4297C4.375 12.9219 4.05469 13.7031 3.89062 14.1797C3.73438 14.6484 3.57031 15.0703 3.53906 15.1094C3.48438 15.1719 1.19531 15.4531 0.679688 15.4688H0.5V20.0391C0.5 22.5547 0.507812 24.6094 0.523438 24.6094C0.648438 24.6094 3.57812 24.9297 3.58594 24.9375C3.59375 24.9531 3.73438 25.3438 3.89062 25.8203C4.05469 26.2891 4.39062 27.1016 4.63281 27.625L5.08594 28.5703L4.16406 29.7109C3.64844 30.3438 3.23438 30.8828 3.23438 30.9141C3.23438 30.9531 4.67188 32.4141 6.42969 34.1719C8.71875 36.4609 9.65625 37.3438 9.72656 37.2969C9.78906 37.2656 10.2969 36.8672 10.8516 36.4062C11.4141 35.9453 11.9062 35.5547 11.9531 35.5234C12.0078 35.4922 12.4453 35.6641 12.9297 35.8906C13.4219 36.125 14.2109 36.4453 14.6797 36.6094C15.1562 36.7656 15.5703 36.9219 15.6094 36.9609C15.6641 37.0078 15.9609 39.4219 15.9688 39.8594C15.9688 39.9922 16.1562 40 18.8203 40H21.6719V37.6172V35.2344H24.125H26.5703L26.7734 35.625C27.2344 36.5156 27.9375 37.125 28.8281 37.4219C29.2578 37.5703 29.4688 37.5938 30.1328 37.5625C30.8438 37.5391 30.9922 37.5 31.4766 37.2656C32.1875 36.9219 32.8125 36.3047 33.1641 35.5859C33.4219 35.0547 33.4297 35.0156 33.4297 34.0625C33.4297 33.1094 33.4219 33.0703 33.1641 32.5391C32.8125 31.8203 32.1953 31.2031 31.4766 30.8516C30.9453 30.5938 30.9062 30.5859 29.9531 30.5859C29 30.5859 28.9609 30.5938 28.4297 30.8516C27.7656 31.1719 27.1172 31.8125 26.7969 32.4453L26.5781 32.8906H24.125H21.6719V31.7266V30.5703L20.5234 30.5156C19.1328 30.4453 18.3281 30.3125 17.3125 29.9922C13.625 28.8125 10.8203 25.5859 10.1484 21.75C10 20.875 10 19.125 10.1484 18.25C10.7109 15.0156 12.8516 12.1172 15.7578 10.6484C17.2422 9.90625 18.2969 9.64062 20.25 9.51562L21.6719 9.42188V8.26562V7.10938H24.125H26.5703L26.7734 7.5C27.2344 8.39062 27.9375 9 28.8281 9.29688C29.2578 9.44531 29.4688 9.46875 30.1328 9.4375C30.8438 9.41406 30.9922 9.375 31.4766 9.14062C32.1875 8.79688 32.8125 8.17969 33.1641 7.46094C33.4219 6.92969 33.4297 6.89062 33.4297 5.9375C33.4297 4.98438 33.4219 4.94531 33.1641 4.41406C32.8125 3.69531 32.1953 3.07812 31.4766 2.72656C30.9453 2.46875 30.9062 2.46094 29.9531 2.46094C29 2.46094 28.9609 2.46875 28.4297 2.72656C27.7656 3.04688 27.1172 3.6875 26.7969 4.32031L26.5781 4.76562H24.125H21.6719V2.38281V0H18.7891H15.8984L15.8594 0.328125Z" fill="white"/>
<path d="M35.7736 7.28906C34.8361 7.64062 34.1955 8.23437 33.758 9.14062C33.5627 9.5625 33.508 9.77344 33.4845 10.3359L33.4455 11.0234L31.508 12L29.5627 12.9687H24.0939C18.0314 12.9687 18.0158 12.9687 16.7658 13.4766C14.5783 14.3594 12.8908 16.3828 12.422 18.6875C12.2658 19.4375 12.258 20.9531 12.4064 21.6562C12.8752 23.8359 14.5705 25.8281 16.6252 26.6016C17.7658 27.0312 17.7814 27.0312 23.9064 27.0312H29.5627L31.508 28L33.4455 28.9766L33.4845 29.6641C33.508 30.2344 33.5627 30.4375 33.7658 30.8672C34.3908 32.1797 35.5392 32.8906 37.0158 32.8906C38.4377 32.8906 39.5783 32.1641 40.2033 30.8672C40.4299 30.4062 40.4611 30.2578 40.4845 29.5312C40.508 28.8516 40.4845 28.6328 40.3517 28.25C40.008 27.2812 39.3986 26.6016 38.4767 26.1562C38.0236 25.9375 37.8595 25.8984 37.1642 25.875C36.2033 25.8359 35.6955 25.9687 34.9924 26.4453L34.5236 26.7656L32.4924 25.75L30.4611 24.7266L24.5627 24.6875C19.3049 24.6484 18.6174 24.625 18.1955 24.5078C17.3361 24.2578 16.7502 23.9141 16.0861 23.2422C15.1174 22.2812 14.7189 21.3281 14.7189 20C14.7189 18.6719 15.1174 17.7187 16.0861 16.7578C16.7502 16.0859 17.3361 15.7422 18.1955 15.4922C18.6174 15.375 19.3049 15.3516 24.5627 15.3125L30.4611 15.2734L32.4924 14.25L34.5236 13.2344L34.9924 13.5547C35.6877 14.0234 36.1955 14.1641 37.1252 14.125C38.3049 14.0781 39.1486 13.6562 39.8127 12.7734C40.3283 12.0937 40.4611 11.6641 40.4611 10.5859C40.4611 9.67187 40.4533 9.63281 40.1955 9.10156C39.8439 8.38281 39.2267 7.76562 38.508 7.42187C38.0002 7.17187 37.8986 7.14843 37.1017 7.13281C36.3595 7.10937 36.1799 7.13281 35.7736 7.28906Z" fill="white"/>
<path d="M35.8125 16.6407C34.9219 16.9689 34.1953 17.6251 33.7812 18.4689L33.6094 18.8282H25.8828H18.1562V20.0001V21.172H25.8828H33.6016L33.8047 21.5626C34.2656 22.4532 34.9688 23.0626 35.8594 23.3595C36.2891 23.5079 36.5 23.5314 37.1641 23.5001C37.875 23.4767 38.0234 23.4376 38.5078 23.2032C39.2188 22.8595 39.8438 22.2423 40.1953 21.5236C40.4531 20.9923 40.4609 20.9532 40.4609 20.0001C40.4609 19.047 40.4531 19.0079 40.1953 18.4767C39.8438 17.7579 39.2266 17.1407 38.5078 16.797C38 16.547 37.8906 16.5236 37.1016 16.5079C36.3906 16.4845 36.1641 16.5079 35.8125 16.6407Z" fill="white"/>
</g>
<defs>
<clipPath id="clip0_107_802">
<rect width="40" height="40" fill="white" transform="translate(0.5)"/>
</clipPath>
</defs>
</svg>
