<svg width="41" height="40" viewBox="0 0 41 40" fill="none" xmlns="http://www.w3.org/2000/svg">
<g clip-path="url(#clip0_107_844)">
<path d="M15.6203 10.0796C12.8266 10.0796 10.5537 12.3527 10.5537 15.1467C10.8084 21.8601 20.4336 21.8576 20.6874 15.1466C20.6874 12.3527 18.4143 10.0796 15.6203 10.0796Z" fill="white"/>
<path d="M28.0611 22.4005L26.5918 20.9311C26.9505 20.2529 27.2441 19.5452 27.4702 18.8139H29.5696C30.2168 18.8139 30.7415 18.2892 30.7415 17.642V12.6513C30.7415 12.0041 30.2168 11.4794 29.5696 11.4794H27.4702C27.2441 10.7482 26.9505 10.0404 26.5918 9.36215L28.0773 7.87668C28.5345 7.41949 28.5349 6.67707 28.0773 6.21934L24.5477 2.69027C24.09 2.2327 23.348 2.23277 22.8905 2.69035L21.4052 4.17566C20.7277 3.81723 20.02 3.52355 19.2884 3.29723V1.19824C19.2884 0.551055 18.7637 0.0263672 18.1165 0.0263672H13.125C12.4778 0.0263672 11.9531 0.551055 11.9531 1.19824V3.29699C11.2216 3.52316 10.5138 3.81684 9.83562 4.17574L8.35039 2.69051C7.89312 2.23324 7.1507 2.23285 6.69312 2.69051L3.16414 6.21949C2.70687 6.67668 2.70641 7.41902 3.16414 7.87676L4.64961 9.36223C4.29102 10.0404 3.99727 10.7481 3.77102 11.4795H1.67187C1.02469 11.4795 0.5 12.0042 0.5 12.6514V17.6421C0.5 18.2893 1.02469 18.8139 1.67187 18.8139H3.77102C3.99727 19.5454 4.29094 20.253 4.64961 20.9312L3.16414 22.4168C2.70687 22.8739 2.70641 23.6163 3.16414 24.074L6.6932 27.603C7.15039 28.0602 7.89273 28.0607 8.35047 27.603L9.83594 26.1175C10.514 26.4761 11.2217 26.7699 11.9532 26.9961V29.0953C11.9532 29.7425 12.4779 30.2671 13.1251 30.2671H18.1164C18.7636 30.2671 19.2883 29.7425 19.2883 29.0953V26.9961C20.0194 26.7699 20.727 26.4762 21.4049 26.1175L22.8745 27.5871C23.9206 25.2963 25.7703 23.4467 28.0611 22.4005ZM15.6204 22.5576C11.5344 22.5576 8.21008 19.2331 8.21008 15.1468C8.58266 5.3284 22.6602 5.33168 23.0312 15.1468C23.0312 19.2332 19.7068 22.5576 15.6204 22.5576Z" fill="white"/>
<path d="M32.3894 23.8052C27.9172 23.8052 24.2788 27.4435 24.2788 31.9157C24.6866 42.6607 40.0938 42.6578 40.4999 31.9156C40.4999 27.4435 36.8615 23.8052 32.3894 23.8052ZM35.6512 31.122L32.4072 34.366C31.9496 34.8237 31.2077 34.8237 30.7501 34.3662L29.1277 32.7445C28.0705 31.6069 29.6456 30.0295 30.7847 31.0869L31.5784 31.8803L33.994 29.4647C35.1323 28.4073 36.7086 29.9838 35.6512 31.122Z" fill="white"/>
</g>
<defs>
<clipPath id="clip0_107_844">
<rect width="40" height="40" fill="white" transform="translate(0.5)"/>
</clipPath>
</defs>
</svg>
