<svg width="37" height="36" viewBox="0 0 37 36" fill="none" xmlns="http://www.w3.org/2000/svg">
<path d="M4.81261 2.51006C4.41886 2.63662 4.03918 2.88272 3.73683 3.22021C3.15324 3.86709 3.1884 3.22021 3.20949 12.396L3.23058 20.5522L3.3923 20.8827C3.60324 21.3046 4.02511 21.7265 4.44699 21.9374L4.77746 22.0991H18.9454H33.1134L33.4439 21.9374C33.8657 21.7265 34.2876 21.3046 34.4986 20.8827L34.6603 20.5522L34.6814 12.396C34.7025 3.22021 34.7376 3.86709 34.154 3.22021C33.9782 3.02334 33.6689 2.77725 33.472 2.67178L33.1134 2.48193L19.0509 2.46787C11.3165 2.46084 4.91105 2.48193 4.81261 2.51006ZM23.5228 4.73897C23.9939 4.87959 24.5634 5.421 24.697 5.86397C25.0486 7.05928 24.2259 8.2124 23.0095 8.2124C22.7915 8.2124 22.5243 8.17725 22.4259 8.12803C22.2571 8.05068 22.215 8.07881 21.7017 8.571C21.4064 8.85928 20.8087 9.42881 20.3798 9.83662L19.5923 10.5819L19.8314 11.0671C19.965 11.3343 20.0915 11.721 20.1196 11.9179L20.1618 12.2905H20.5907C20.8298 12.2905 22.2993 12.2272 23.8673 12.1499C25.4353 12.0726 26.7923 12.0093 26.8907 12.0093C27.0243 12.0022 27.1157 11.9249 27.2564 11.6929C27.5165 11.264 27.9103 11.0179 28.4165 10.9757C28.972 10.9265 29.4993 11.1937 29.8017 11.6788C30.104 12.171 30.1251 12.6351 29.865 13.1343C29.4993 13.8585 28.7259 14.1608 27.9806 13.8796C27.6993 13.7671 27.2282 13.3452 27.165 13.1413C27.1368 13.071 26.3282 13.0921 23.5157 13.2187L19.8946 13.3874L19.4376 13.8515C19.1845 14.1046 18.9173 14.3437 18.84 14.3858C18.7064 14.4562 18.7204 14.5054 19.1845 15.4476C19.4587 15.989 19.6907 16.4179 19.7189 16.4038C19.74 16.3897 19.9017 16.4108 20.0845 16.446C20.4712 16.5304 20.9282 16.903 21.1251 17.2897C21.547 18.1124 21.0196 19.153 20.0634 19.3921C19.0509 19.6452 18.0314 18.5976 18.2986 17.5921C18.3478 17.4093 18.4532 17.1772 18.5236 17.0718C18.6009 16.9593 18.6642 16.8397 18.6642 16.7976C18.6642 16.7554 18.4392 16.2632 18.1579 15.7077L17.6587 14.6952L17.2931 14.6601C16.9064 14.6179 16.4704 14.4351 16.0837 14.1468L15.8587 13.978L13.5173 15.778L11.1759 17.578L11.197 18.0843C11.2321 18.7312 11.0915 19.0827 10.6415 19.4905C10.065 20.0108 9.3548 20.0882 8.7009 19.7015C7.69543 19.1179 7.56886 17.7679 8.44074 17.0015C8.93996 16.5655 9.51652 16.4671 10.1634 16.6921L10.4868 16.8116L12.8915 14.9624C14.6775 13.5843 15.2821 13.078 15.254 13.0007C15.022 12.396 15.0923 11.5804 15.4439 10.9616L15.6548 10.5819L14.9236 9.85772L14.1993 9.12646L13.9251 9.20381C13.1517 9.41475 12.3361 8.92256 12.0829 8.0999C11.8017 7.17178 12.5681 6.17334 13.5525 6.17334C13.9884 6.17334 14.565 6.48272 14.8251 6.85537C15.0571 7.19287 15.1486 7.83272 15.022 8.19834C14.9517 8.39522 14.9798 8.43037 15.7111 9.16162L16.4775 9.921L16.8431 9.8085C17.279 9.66084 17.9681 9.66084 18.3478 9.79443C18.5025 9.85068 18.6712 9.8999 18.7275 9.8999C18.7767 9.8999 19.4165 9.33037 20.1478 8.62725L21.4767 7.35459L21.3712 7.15068C20.9282 6.29287 21.4837 5.03428 22.4329 4.73897C22.8829 4.60537 23.0587 4.60537 23.5228 4.73897Z" fill="white"/>
<path d="M22.6581 5.78669C22.3838 5.94137 22.2292 6.27184 22.2854 6.57419C22.3909 7.15075 23.101 7.36872 23.5229 6.95387C24.0924 6.37731 23.3612 5.39294 22.6581 5.78669Z" fill="white"/>
<path d="M13.215 7.36871C12.8142 7.81167 13.3767 8.44449 13.8689 8.09996C14.0658 7.95933 14.0869 7.51636 13.897 7.34761C13.7142 7.18589 13.3697 7.19996 13.215 7.36871Z" fill="white"/>
<path d="M17.0541 10.814C16.569 11.0249 16.2526 11.4327 16.1612 11.9882C16.0346 12.8108 16.7447 13.6265 17.6096 13.6265C18.4744 13.6265 19.1846 12.8108 19.058 11.9882C18.9315 11.2288 18.4463 10.7929 17.6869 10.7647C17.4338 10.7507 17.1455 10.7788 17.0541 10.814Z" fill="white"/>
<path d="M28.2409 12.1217C28.044 12.2553 28.0299 12.642 28.2127 12.8038C28.3885 12.9655 28.6909 12.9514 28.8596 12.7827C29.2674 12.3748 28.719 11.7842 28.2409 12.1217Z" fill="white"/>
<path d="M19.4166 17.6202C19.2337 17.817 19.2689 18.0912 19.4869 18.267C19.8103 18.5202 20.2111 18.3233 20.2111 17.9084C20.2111 17.803 20.1619 17.6623 20.0986 17.6061C19.9509 17.4514 19.5572 17.4655 19.4166 17.6202Z" fill="white"/>
<path d="M9.07344 17.8522C8.84141 18.1265 8.84141 18.4077 9.07344 18.6819C9.22109 18.8577 9.3125 18.8999 9.52344 18.8999C9.93125 18.8999 10.1773 18.6608 10.1773 18.2671C10.1773 17.8733 9.93125 17.6343 9.52344 17.6343C9.3125 17.6343 9.22109 17.6765 9.07344 17.8522Z" fill="white"/>
<path d="M13.7422 25.0171V26.8452H18.9453H24.1484V25.0171V23.189H18.9453H13.7422V25.0171Z" fill="white"/>
<path d="M10.332 27.9983C9.37578 28.2374 8.65156 28.9054 8.33516 29.8546C8.21562 30.1991 8.1875 30.4593 8.1875 31.1694C8.1875 32.0132 8.19453 32.0624 8.36328 32.2241L8.53203 32.3999H18.9453H29.3586L29.5273 32.2241C29.6961 32.0624 29.7031 32.0132 29.7031 31.1694C29.7031 30.4593 29.675 30.1991 29.5555 29.8546C29.225 28.8702 28.4727 28.1952 27.4672 27.9772C26.9117 27.8577 10.8172 27.8788 10.332 27.9983Z" fill="white"/>
</svg>
