<svg width="33" height="33" viewBox="0 0 33 33" fill="none" xmlns="http://www.w3.org/2000/svg">
<path d="M7.425 1.1666C6.96738 1.34707 6.49687 1.81758 6.32285 2.28809L6.1875 2.64902V14.4375V26.226L6.32285 26.5869C6.50332 27.0639 6.96738 27.5279 7.44434 27.7084C7.80527 27.8438 7.84395 27.8438 16.5 27.8438C25.1561 27.8438 25.1947 27.8438 25.5557 27.7084C26.0326 27.5279 26.4967 27.0639 26.6771 26.5869L26.8125 26.226V14.4375V2.64902L26.6771 2.28809C26.4967 1.81113 26.0326 1.34707 25.5557 1.1666C25.1947 1.03125 25.1625 1.03125 16.4807 1.03769C7.88262 1.03769 7.76016 1.03769 7.425 1.1666ZM23.6994 4.71797C23.8412 4.8082 24.0088 4.99512 24.0797 5.13692C24.1957 5.37539 24.2021 5.65899 24.2021 14.4375C24.2021 23.216 24.1957 23.4996 24.0797 23.7381C24.0088 23.8799 23.8412 24.0668 23.6994 24.157L23.4352 24.3311H16.5H9.56484L9.30059 24.157C9.15879 24.0668 8.99121 23.8799 8.92031 23.7381C8.8043 23.4996 8.79785 23.1967 8.77852 14.6309C8.76562 8.37891 8.78496 5.66543 8.83652 5.42695C8.91387 5.03379 9.2168 4.6793 9.5584 4.58262C9.68086 4.54395 12.4588 4.52461 16.6031 4.53106L23.4352 4.54395L23.6994 4.71797Z" fill="white"/>
<path d="M10.8281 14.4375V22.4297H16.5H22.1719V14.4375V6.44531H16.5H10.8281V14.4375ZM17.5312 9.54551C17.9373 9.86777 18.2789 10.1385 18.2854 10.1449C18.2918 10.1514 17.9051 10.6477 17.4281 11.2471L16.5516 12.3428L17.6666 12.375C18.917 12.4137 19.0975 12.4652 19.3811 12.8906C19.568 13.1613 19.5809 13.6189 19.4068 13.8896C19.2973 14.0701 16.5322 17.2541 16.1133 17.6859L15.9264 17.8729L15.4301 17.4281C15.1594 17.1832 14.8371 16.8932 14.7146 16.79L14.4891 16.5967L15.4043 15.5332L16.3131 14.4697L15.2625 14.4375C14.3537 14.4117 14.1797 14.3859 13.9863 14.2699C13.4771 13.9734 13.3096 13.3354 13.6189 12.8777C13.8896 12.491 16.6998 8.95898 16.7449 8.95898C16.7707 8.95898 17.1252 9.22324 17.5312 9.54551ZM14.9531 19.5938V20.625H13.6641H12.375V19.5938V18.5625H13.6641H14.9531V19.5938ZM20.625 19.5938V20.625H19.3359H18.0469V19.5938V18.5625H19.3359H20.625V19.5938Z" fill="white"/>
<path d="M1.03125 8.66894V12.1752L1.27617 12.2396C1.40508 12.2783 2.04961 12.4394 2.70703 12.6006C3.36445 12.7617 3.95098 12.91 4.01543 12.9293C4.11855 12.9615 4.125 12.7488 4.125 9.0621V5.15624H2.57812H1.03125V8.66894Z" fill="white"/>
<path d="M28.875 14.4375C28.875 22.8229 28.8814 23.274 28.991 23.2418C29.049 23.2225 29.6355 23.0742 30.293 22.9131C30.9504 22.752 31.5949 22.5908 31.7303 22.5522L31.9688 22.4877V14.4375V6.38731L31.7303 6.32286C31.5949 6.28419 30.9504 6.12305 30.293 5.96192C29.6355 5.80079 29.049 5.65254 28.991 5.63321C28.8814 5.60098 28.875 6.05215 28.875 14.4375Z" fill="white"/>
<path d="M2.70703 16.268C1.97871 16.4549 1.3084 16.6289 1.21172 16.6482L1.03125 16.6934V20.2061V23.7188H2.57812H4.125V19.8193C4.125 17.673 4.10566 15.9199 4.07988 15.9264C4.04766 15.9264 3.43535 16.0811 2.70703 16.268Z" fill="white"/>
<path d="M9.28125 30.9375V31.9688H12.375H15.4688V30.9375V29.9062H12.375H9.28125V30.9375Z" fill="white"/>
<path d="M17.5312 30.9375V31.9688H20.625H23.7188V30.9375V29.9062H20.625H17.5312V30.9375Z" fill="white"/>
</svg>
