<svg width="34" height="34" viewBox="0 0 34 34" fill="none" xmlns="http://www.w3.org/2000/svg">
<g clip-path="url(#clip0_194_724)">
<path d="M16.29 0.139454C15.6259 0.471485 15.4068 0.982811 15.4068 2.23789V3.05469H11.3427C6.85365 3.05469 6.44193 3.08125 5.31966 3.45312C3.16146 4.15703 1.36849 5.83047 0.538414 7.91562C0.126695 8.94492 0.0337267 9.46953 0.0337267 10.8242C0.0337267 11.8801 0.0536485 12.1324 0.186461 12.6437C0.518492 13.9652 1.19584 15.1871 2.12552 16.1633C3.30091 17.3984 4.59584 18.0957 6.40209 18.4742C6.62787 18.5273 10.1474 18.5605 16.9673 18.5871L27.1939 18.627L27.6255 18.7863C29.1861 19.3441 30.2286 20.4133 30.6935 21.9141C30.9193 22.6578 30.906 23.8 30.6603 24.5371C30.2751 25.6926 29.4451 26.6953 28.4423 27.2133C27.3798 27.7645 27.4329 27.7578 22.7447 27.7578H18.6076L18.581 26.8082C18.5611 26.0645 18.5279 25.8121 18.4349 25.6129C18.2689 25.2809 17.9634 24.9754 17.6314 24.8293C17.379 24.7164 17.0669 24.7031 12.4251 24.7031C8.86576 24.7031 7.4181 24.723 7.23216 24.7828C6.88685 24.8824 6.45521 25.2676 6.30248 25.593C6.20287 25.8187 6.1763 26.0379 6.1763 26.8082V27.7512L3.66615 27.7711L1.16263 27.791L0.830602 27.9637C0.624742 28.0766 0.412242 28.2559 0.266149 28.4617C0.0669298 28.734 0.0337267 28.8402 0.0138048 29.2254C0.000523536 29.4711 0.0204454 29.7832 0.0669298 29.916C0.17318 30.2348 0.485289 30.5867 0.823961 30.766C1.08959 30.9055 1.16927 30.9121 3.63959 30.932L6.1763 30.952V31.875C6.1763 32.3797 6.20951 32.8777 6.24935 32.984C6.3888 33.3559 6.65443 33.6613 6.9931 33.834L7.33177 34H12.3786C17.3458 34 17.4255 34 17.7044 33.8605C18.3751 33.5418 18.5943 33.0172 18.5943 31.7621V30.9453H22.665C27.1474 30.9453 27.5591 30.9187 28.6814 30.5469C30.8396 29.843 32.6326 28.1695 33.4626 26.0844C33.8744 25.0551 33.9673 24.5305 33.9673 23.1758C33.9673 22.1199 33.9474 21.8676 33.8146 21.3562C33.4826 20.0348 32.8052 18.8129 31.8755 17.8367C30.7001 16.6016 29.4052 15.9043 27.599 15.5258C27.3732 15.4727 23.8536 15.4395 17.0337 15.4129L6.80716 15.373L6.37552 15.2137C4.81498 14.6559 3.7724 13.5867 3.30755 12.0859C3.08177 11.3422 3.09505 10.2 3.34076 9.46289C3.72591 8.30742 4.55599 7.30469 5.55873 6.78672C6.62123 6.23555 6.5681 6.24219 11.2564 6.24219H15.3935L15.4201 7.18516C15.44 7.93555 15.4732 8.18789 15.5661 8.38711C15.7322 8.71914 16.0376 9.02461 16.3697 9.1707C16.622 9.28359 16.9341 9.29688 21.5759 9.29688C25.1353 9.29688 26.5829 9.27695 26.7689 9.21719C27.1142 9.11758 27.5458 8.73242 27.6986 8.40703C27.7982 8.18125 27.8247 7.96211 27.8247 7.1918V6.24883L30.3349 6.2289L32.8384 6.20898L33.1704 6.03633C33.3763 5.92344 33.5888 5.74414 33.7349 5.53828C33.9341 5.26601 33.9673 5.15977 33.9872 4.77461C34.0005 4.52891 33.9806 4.2168 33.9341 4.08398C33.8279 3.76523 33.5158 3.41328 33.1771 3.23398C32.9115 3.09453 32.8318 3.08789 30.3681 3.06797L27.8247 3.04805V2.125C27.8247 1.62031 27.7915 1.12226 27.7517 1.01601C27.6122 0.644138 27.3466 0.338673 27.0079 0.166016L26.6693 0H21.6224C16.6286 0 16.5689 0 16.29 0.139454Z" fill="white"/>
</g>
<defs>
<clipPath id="clip0_194_724">
<rect width="34" height="34" fill="white"/>
</clipPath>
</defs>
</svg>
