<svg width="34" height="34" viewBox="0 0 34 34" fill="none" xmlns="http://www.w3.org/2000/svg">
<g clip-path="url(#clip0_194_716)">
<path d="M2.01211 1.19531C1.12227 1.51406 0.438281 2.20469 0.126172 3.10781C0.00664063 3.45977 0 3.77852 0 12.232V20.9844H3.01484H6.02969L6.05625 19.3773C6.07617 17.8566 6.08281 17.7504 6.22227 17.5313C6.48125 17.1129 6.69375 17.0398 7.71641 17.0133L8.62617 16.9867L8.80547 16.5617L8.98477 16.1301L8.3207 15.4527C7.21172 14.3238 7.21172 14.3105 9.33672 12.2121C11.3688 10.2 11.3488 10.2066 12.4645 11.309L13.1418 11.973L13.5734 11.7938L13.9984 11.6145L14.025 10.7047C14.0516 9.68203 14.1313 9.44961 14.5563 9.19727C14.7621 9.07109 14.8949 9.06445 17 9.06445C19.1051 9.06445 19.2379 9.07109 19.4438 9.19727C19.8687 9.44961 19.9484 9.68203 19.975 10.7047L20.0016 11.6145L20.4266 11.7938L20.8582 11.973L21.5355 11.309C22.6645 10.2 22.6777 10.2 24.7762 12.325C26.7883 14.357 26.7816 14.3371 25.6793 15.4527L25.0152 16.1301L25.1945 16.5617L25.3738 16.9867L26.2836 17.0133C27.0738 17.0332 27.2266 17.0531 27.4258 17.1793C27.8973 17.4715 27.9238 17.5711 27.9438 19.3707L27.9703 20.9844H30.9852H34L33.9867 12.1324L33.9668 3.28711L33.741 2.80898C33.5816 2.46367 33.4023 2.21797 33.1102 1.93906C32.6719 1.51406 32.4527 1.38125 31.8883 1.18867C31.5363 1.06914 31.0715 1.0625 16.9402 1.06914C2.90195 1.06914 2.34414 1.07578 2.01211 1.19531ZM28.0434 5.30586C28.7605 5.59141 29.4047 6.22891 29.6969 6.95938C29.916 7.50391 29.916 8.56641 29.6969 9.11758C29.4047 9.84141 28.7672 10.4789 28.0367 10.7711C27.4922 10.9902 26.4297 10.9902 25.8852 10.7711C25.1547 10.4789 24.5172 9.83477 24.2316 9.11758C24.0258 8.59297 23.9859 7.70977 24.1387 7.225C24.4641 6.24883 25.0484 5.62461 25.9781 5.27266C26.5359 5.06016 27.459 5.07344 28.0434 5.30586Z" fill="white"/>
<path d="M26.4031 7.16523C26.0977 7.37109 25.9648 7.62344 25.9648 8.03515C25.9648 8.44687 26.0977 8.69922 26.4031 8.90508C26.6621 9.07773 27.2598 9.07773 27.5188 8.90508C27.8242 8.69922 27.957 8.44687 27.957 8.03515C27.957 7.62344 27.8242 7.37109 27.5188 7.16523C27.3859 7.0789 27.2066 7.03906 26.9609 7.03906C26.7152 7.03906 26.5359 7.0789 26.4031 7.16523Z" fill="white"/>
<path d="M15.9906 11.7672C15.9441 12.8828 15.8578 13.009 14.8352 13.3543C14.5164 13.4672 14.025 13.673 13.7395 13.8191C13.2016 14.0848 12.8629 14.1445 12.5973 14.0051C12.5176 13.9652 12.2121 13.693 11.9199 13.4074L11.3887 12.8828L10.6383 13.6332L9.89453 14.377L10.3992 14.875C10.6715 15.1473 10.9438 15.4527 10.9969 15.5523C11.1562 15.8512 11.1098 16.1699 10.8309 16.7277C10.6848 17.0133 10.4789 17.5047 10.366 17.8234C10.0207 18.8461 9.89453 18.9324 8.78555 18.9789L8.03516 19.0121V19.9949V20.9844H10.0805H12.1191V20.0082C12.1191 19.1582 12.1391 18.9656 12.2719 18.5539C12.7965 16.9801 13.9918 15.7848 15.5656 15.2602C15.9707 15.1273 16.1699 15.1074 17 15.1074C17.8301 15.1074 18.0293 15.1273 18.4344 15.2602C20.0082 15.7848 21.2035 16.9801 21.7281 18.5539C21.8609 18.9656 21.8809 19.1582 21.8809 20.0082V20.9844H23.9262H25.9648V19.9949V19.0121L25.2211 18.9789C24.1055 18.9324 23.9793 18.8461 23.634 17.8234C23.5211 17.5047 23.3152 17.0133 23.1691 16.7277C22.8902 16.1699 22.8438 15.8512 23.0031 15.5523C23.0563 15.4527 23.3285 15.1473 23.6008 14.875L24.1055 14.377L23.3617 13.6332L22.6113 12.8828L22.0801 13.4074C21.7879 13.693 21.4824 13.9652 21.4027 14.0051C21.1371 14.1445 20.7984 14.0848 20.2605 13.8191C19.975 13.673 19.4836 13.4672 19.1648 13.3543C18.1422 13.009 18.0559 12.8828 18.0094 11.7672L17.9762 11.0234H17H16.0238L15.9906 11.7672Z" fill="white"/>
<path d="M16.0229 17.1328C15.133 17.4516 14.449 18.1422 14.1369 19.0453C13.9908 19.4637 13.9643 20.3203 14.0905 20.7254L14.1635 20.9844H16.999H19.8346L19.9076 20.7254C20.0338 20.3203 20.0072 19.4637 19.8612 19.0453C19.549 18.1289 18.8584 17.4383 17.9487 17.1262C17.4506 16.9602 16.5143 16.9602 16.0229 17.1328Z" fill="white"/>
<path d="M0 23.7602C0 24.3711 0.0265625 24.6367 0.126172 24.9223C0.438281 25.832 1.12891 26.5227 2.04531 26.8348C2.40391 26.9543 2.80898 26.9609 16.9668 26.9609C31.0648 26.9609 31.5363 26.9543 31.8883 26.8348C32.4527 26.6422 32.6719 26.5094 33.1102 26.0844C33.4023 25.8055 33.5816 25.5598 33.741 25.2145C33.9535 24.7629 33.9668 24.6898 33.9867 23.8531L34.0133 22.9766H17.0066H0V23.7602Z" fill="white"/>
<path d="M10.5918 29.9492L10.2664 30.9453H8.4668C6.81992 30.9453 6.66055 30.9586 6.48125 31.0715C6.17578 31.2773 6.04297 31.5297 6.04297 31.9414C6.04297 32.3531 6.17578 32.6055 6.48125 32.8113C6.66719 32.9309 6.99258 32.9375 17 32.9375C27.0074 32.9375 27.3328 32.9309 27.5188 32.8113C27.8242 32.6055 27.957 32.3531 27.957 31.9414C27.957 31.5297 27.8242 31.2773 27.5188 31.0715C27.3395 30.9586 27.1801 30.9453 25.5332 30.9453H23.7336L23.4082 29.9492L23.0828 28.9531H17H10.9172L10.5918 29.9492Z" fill="white"/>
</g>
<defs>
<clipPath id="clip0_194_716">
<rect width="34" height="34" fill="white"/>
</clipPath>
</defs>
</svg>
