<svg width="39" height="39" viewBox="0 0 39 39" fill="none" xmlns="http://www.w3.org/2000/svg">
<path d="M18.2117 0.0761709C15.8504 0.571288 13.9842 2.29277 13.2377 4.64648C13.0854 5.14922 13.0625 5.37012 13.0625 6.47461C13.0625 7.5791 13.0854 7.8 13.2377 8.30273C13.9232 10.4736 15.5 12.0504 17.6709 12.7359C18.1736 12.8883 18.3945 12.9111 19.499 12.9111C20.6035 12.9111 20.8244 12.8883 21.3271 12.7359C23.498 12.0504 25.0748 10.4736 25.7604 8.30273C25.9127 7.8 25.9355 7.5791 25.9355 6.47461C25.9355 5.37012 25.9127 5.14922 25.7604 4.64648C25.0824 2.49082 23.5209 0.921679 21.3652 0.228515C20.9311 0.0914049 20.6188 0.053319 19.6895 0.030468C19.0648 0.015233 18.3945 0.038085 18.2117 0.0761709Z" fill="white"/>
<path d="M14.0161 14.0842C12.6222 14.7088 10.3827 16.2398 10.6417 16.3998C10.6798 16.4227 12.6831 17.1844 15.1054 18.0908L19.5157 19.7437L23.9413 18.0832C26.3788 17.1768 28.3898 16.415 28.4126 16.3922C28.4888 16.3312 27.6966 15.6838 26.912 15.1506C26.2036 14.6783 24.863 13.9775 24.406 13.8328C24.2917 13.7947 24.1013 13.8633 23.7814 14.0537C22.7683 14.6478 21.4505 15.0516 20.247 15.143C18.4417 15.2801 16.7888 14.9297 15.2882 14.0842C14.9988 13.9166 14.7398 13.7871 14.7169 13.7947C14.6864 13.7947 14.3741 13.9242 14.0161 14.0842Z" fill="white"/>
<path d="M6.7793 17.7328C6.63457 17.8014 6.43652 17.9766 6.34512 18.1213C6.17754 18.365 6.16992 18.4488 6.16992 19.8504V21.3205L6.61172 21.3662C7.68574 21.4805 8.27227 21.7395 8.92734 22.4021C9.78047 23.2553 9.9709 23.9637 9.9709 26.2793C9.9709 28.5949 9.78047 29.3033 8.92734 30.1564C8.27227 30.8191 7.68574 31.0781 6.61172 31.1924L6.16992 31.2381V32.6244C6.16992 33.866 6.18516 34.0336 6.32227 34.2545C6.39844 34.3916 6.54316 34.5516 6.64219 34.6125C6.81738 34.7191 18.167 39 18.2965 39C18.327 39 18.3574 35.0924 18.3574 30.324V21.648L12.9416 19.6219C9.96328 18.5098 7.41914 17.5957 7.28965 17.5957C7.15254 17.5957 6.92402 17.6566 6.7793 17.7328Z" fill="white"/>
<path d="M26.0355 19.6371L20.6426 21.6633V30.3316C20.6426 35.1 20.673 39 20.7035 39C20.833 39 32.1826 34.7191 32.3578 34.6125C32.4568 34.5516 32.6016 34.3916 32.6777 34.2545C32.8148 34.0336 32.8301 33.866 32.8301 32.6244V31.2381L32.3959 31.1924C31.3143 31.0781 30.7277 30.8191 30.0727 30.1564C29.2195 29.3033 29.0291 28.5949 29.0291 26.2793C29.0291 23.9637 29.2195 23.2553 30.0727 22.4021C30.7277 21.7395 31.3143 21.4805 32.3959 21.3662L32.8301 21.3205V19.8504C32.8301 18.4488 32.8225 18.365 32.6549 18.1213C32.4492 17.809 32.0455 17.5957 31.6875 17.6033C31.5352 17.6033 29.0977 18.4793 26.0355 19.6371Z" fill="white"/>
<path d="M4.85942 23.7275C4.13579 23.9941 3.47309 24.6721 3.22934 25.3881C3.04653 25.9365 3.10747 26.9648 3.35122 27.46C3.58735 27.9475 4.12055 28.4807 4.60805 28.7168C4.93559 28.8844 5.1184 28.9072 5.94106 28.9301C7.01508 28.9605 7.27407 28.8844 7.54067 28.4502C7.6854 28.2217 7.69301 28.0617 7.69301 26.2717C7.69301 24.5045 7.67778 24.3217 7.54829 24.116C7.25883 23.6818 7.06079 23.6133 6.05532 23.6209C5.48403 23.6209 5.03462 23.6666 4.85942 23.7275Z" fill="white"/>
<path d="M31.8094 23.758C31.3219 24.0856 31.3066 24.1389 31.3066 26.2717C31.3066 28.0617 31.3143 28.2217 31.459 28.4502C31.7256 28.8844 31.9846 28.9682 33.0586 28.9301C33.8813 28.9072 34.0641 28.8768 34.3916 28.7168C34.8791 28.4807 35.4123 27.9475 35.6484 27.46C35.816 27.1324 35.8389 26.9725 35.8389 26.2793C35.8389 25.5861 35.816 25.4262 35.6484 25.0986C35.4123 24.6111 34.8791 24.0779 34.3916 23.8418C34.0564 23.6742 33.8889 23.6514 33.0205 23.6285C32.1445 23.6133 32.0074 23.6285 31.8094 23.758Z" fill="white"/>
</svg>
