<svg width="43" height="43" viewBox="0 0 43 43" fill="none" xmlns="http://www.w3.org/2000/svg">
<path d="M28.6548 2.25079C28.4532 2.45235 27.6049 5.32461 27.6805 5.56817C27.7645 5.84532 27.8653 5.9461 28.1424 6.00489C28.5792 6.10567 28.7723 5.88731 29.0159 5.05586C29.1335 4.65274 29.3434 3.95567 29.4778 3.50215C29.7214 2.67911 29.7298 2.51954 29.4946 2.24239C29.3266 2.05762 28.8479 2.05762 28.6548 2.25079Z" fill="white"/>
<path d="M23.2221 2.81348C22.9282 3.09902 22.9618 3.37617 23.3817 4.10684C23.5833 4.45957 23.9024 5.05586 24.0872 5.43379C24.4483 6.14766 24.6751 6.38281 25.011 6.38281C25.2462 6.38281 25.6157 6.03008 25.6157 5.81172C25.6157 5.57656 24.3055 3.08223 24.0536 2.82187C23.7764 2.54473 23.4825 2.54473 23.2221 2.81348Z" fill="white"/>
<path d="M33.0897 4.57714C32.9217 4.65273 31.8383 5.66893 30.5198 6.97909L28.2438 9.25507L27.5383 9.0787C26.7069 8.86874 26.2198 8.86034 25.6067 9.03671C25.1952 9.16269 25.0188 9.30546 23.5575 10.7416L21.9618 12.3205L21.3739 12.1693C21.0043 12.0769 20.4416 12.0182 19.8538 12.0182C18.678 12.0098 18.0313 12.1861 17.3258 12.7152C17.0571 12.9252 13.7145 16.2174 9.90161 20.0471C3.56919 26.3879 2.93931 27.0514 2.69575 27.5469C1.9147 29.1678 2.21704 31.2422 3.60278 33.7113C5.81997 37.6838 10.6743 40.64 13.8741 39.9682C14.9911 39.733 14.6887 40.0102 22.4489 32.2584C29.2012 25.5228 29.6715 25.0357 29.9403 24.4814C30.4274 23.4904 30.503 22.4238 30.1754 20.9625L30.0495 20.3914L31.5192 18.9049C32.3674 18.0566 33.0729 17.2672 33.1821 17.0488C33.35 16.7297 33.3836 16.5449 33.3836 15.873C33.3836 15.3103 33.3333 14.9408 33.2241 14.6217L33.0729 14.1766L35.3825 11.8502C37.1797 10.0445 37.7088 9.45663 37.7928 9.20468C38.2211 7.87772 36.7766 5.65214 34.9206 4.7871C34.2571 4.47636 33.5096 4.39237 33.0897 4.57714ZM34.5006 5.97128C35.4413 6.43319 36.6926 8.0289 36.6002 8.65878C36.5583 8.94432 36.3735 9.01991 35.9704 8.91073C34.9709 8.64198 33.6356 7.24784 33.3836 6.20643C33.35 6.05526 33.3752 5.93768 33.476 5.8453C33.644 5.66893 33.9463 5.71093 34.5006 5.97128ZM27.1688 10.2629C27.2024 10.2881 27.1604 10.4392 27.0848 10.5904C26.8833 10.9767 26.9504 11.8334 27.2276 12.4381C27.7147 13.4879 28.7393 14.5293 29.8143 15.0584C30.4694 15.3859 31.3848 15.4699 31.8131 15.2516C32.1239 15.092 32.1659 15.1592 32.1659 15.8898C32.1659 16.3266 32.1323 16.4189 31.9307 16.6289C31.7963 16.7633 31.5528 16.8976 31.3848 16.9228C30.293 17.1328 28.1262 15.8646 26.8581 14.2857C25.4219 12.4969 24.9852 10.6324 25.909 10.2377C26.0938 10.1621 27.0848 10.1789 27.1688 10.2629ZM20.7776 13.3199C20.8952 13.3619 20.8616 13.4375 20.5676 13.7482C20.0889 14.2773 19.9629 14.6133 19.9629 15.4111C19.9629 16.2762 20.2989 17.2672 20.9204 18.2834C21.5083 19.224 22.9696 20.7273 23.8934 21.3236C25.1112 22.1131 26.5053 22.5162 27.4291 22.3482C27.9666 22.2475 28.143 22.1635 28.6217 21.7771C28.8233 21.6092 29.0081 21.5084 29.0416 21.5336C29.0668 21.5672 29.092 21.9619 29.1004 22.407C29.1004 23.776 28.7225 24.473 27.6727 25.0105C27.1184 25.2961 26.161 25.3549 25.3211 25.1617C23.6331 24.767 21.3067 23.1965 19.7194 21.3824C17.2502 18.5689 16.4188 15.7891 17.5778 14.2605C18.1573 13.5047 18.9887 13.1519 20.0385 13.2275C20.3661 13.2443 20.702 13.2863 20.7776 13.3199ZM14.9827 17.8635C12.7655 22.8689 11.6905 26.6398 11.4049 30.4023C11.2286 32.7959 11.5309 35.3574 12.2196 37.373C12.3875 37.8602 12.5471 38.3221 12.5723 38.406C12.6143 38.5404 12.5723 38.5404 12.0852 38.3557C10.3131 37.6838 8.80981 36.6928 7.34009 35.2314C5.05571 32.9555 3.77915 30.2764 4.20747 28.6807C4.28306 28.3951 5.05571 27.5805 9.68325 22.9445C12.6479 19.9799 15.0834 17.5527 15.1002 17.5527C15.1086 17.5527 15.0583 17.6955 14.9827 17.8635Z" fill="white"/>
<path d="M19.7371 7.05469C19.5187 7.27305 19.5187 7.73496 19.7287 7.92812C19.9219 8.10449 22.5254 8.90234 22.9033 8.90234C23.424 8.90234 23.718 8.26406 23.3568 7.90293C23.2644 7.81055 23.0293 7.69297 22.8277 7.64258C22.6262 7.59219 22.0047 7.39902 21.442 7.21426C20.283 6.84473 19.9807 6.81113 19.7371 7.05469Z" fill="white"/>
<path d="M38.9275 12.0266C38.7427 12.1189 38.2388 12.4045 37.8105 12.648C37.3822 12.9 37.0042 13.1016 36.9622 13.1016C36.9202 13.1016 36.7943 13.1771 36.6683 13.2779C36.24 13.6139 36.4583 14.3613 36.9874 14.3613C37.3066 14.3613 39.7673 13.1184 40.0025 12.8412C40.1788 12.6229 40.1872 12.2785 40.0109 12.0266C39.8429 11.783 39.3894 11.783 38.9275 12.0266Z" fill="white"/>
<path d="M36.9606 16.6205C36.7338 16.8473 36.7255 17.3092 36.9438 17.5023C37.1202 17.6619 39.7993 18.4766 40.152 18.4766C40.5719 18.4766 40.8407 18.023 40.6811 17.5947C40.5971 17.3848 40.194 17.2168 38.9258 16.8557C37.3805 16.4189 37.1874 16.3937 36.9606 16.6205Z" fill="white"/>
<path d="M34.8536 19.2324C34.7612 19.3248 34.6856 19.5012 34.694 19.6271C34.694 19.9715 36.1217 22.5246 36.3905 22.6758C36.6676 22.8353 37.0288 22.7178 37.1967 22.407C37.3647 22.1215 37.2639 21.8107 36.7012 20.8701C36.4829 20.5006 36.1805 19.9631 36.0461 19.6859C35.9034 19.4004 35.727 19.1484 35.6514 19.1148C35.3827 19.0141 35.0215 19.0644 34.8536 19.2324Z" fill="white"/>
</svg>
