<svg width="38" height="38" viewBox="0 0 38 38" fill="none" xmlns="http://www.w3.org/2000/svg">
<path d="M11.0281 4.43828L3.17578 7.75586L3.21289 11.6895C3.25742 15.7789 3.29453 16.343 3.63594 18.191C4.97187 25.3828 9.43984 31.6691 15.8301 35.343C16.8172 35.907 18.6949 36.8125 18.8879 36.8125C19.0809 36.8125 20.9586 35.907 21.9457 35.343C23.8234 34.2668 25.3523 33.109 26.9406 31.5652C30.6812 27.9508 33.1973 23.2824 34.1398 18.191C34.4812 16.343 34.5184 15.7789 34.5629 11.6895L34.6 7.75586L26.7848 4.46055C22.4801 2.64219 18.9473 1.15039 18.925 1.14297C18.9027 1.13555 15.3477 2.6125 11.0281 4.43828ZM21.968 11.1328C21.968 11.9047 21.9977 12.543 22.0273 12.543C22.0645 12.543 22.2797 12.6617 22.5172 12.8027C22.7547 12.9438 22.9922 13.0625 23.0367 13.0625C23.0812 13.0625 23.6305 12.7582 24.2613 12.3945C24.8922 12.0234 25.434 11.7488 25.4637 11.7785C25.4934 11.8156 26.1984 13.0031 27.0223 14.4281C28.3953 16.818 28.5066 17.0332 28.3879 17.1223C28.3137 17.1742 27.7719 17.4934 27.1855 17.8273L26.1168 18.4434L26.1391 19.0594L26.1613 19.6828L27.3043 20.3434C27.9352 20.707 28.4695 21.0188 28.4844 21.041C28.5289 21.0855 25.5082 26.3402 25.4266 26.3477C25.3746 26.3477 23.7641 25.4422 23.148 25.0637C23.0664 25.0117 22.8957 25.0785 22.5023 25.3086L21.968 25.6277V27.0305V28.4258H18.8879H15.8078V27.0305V25.6277L15.2734 25.3086C14.8801 25.0785 14.7094 25.0117 14.6277 25.0637C14.0117 25.4422 12.4012 26.3477 12.3492 26.3477C12.2676 26.3402 9.24687 21.0855 9.29141 21.041C9.30625 21.0188 9.84062 20.707 10.4715 20.3434L11.6145 19.6828L11.6367 19.0594L11.659 18.4434L10.5902 17.8273C10.0039 17.4934 9.46211 17.1742 9.38789 17.1223C9.26914 17.0332 9.38047 16.818 10.7535 14.4281C11.5773 13.0031 12.2824 11.8156 12.3121 11.7785C12.3418 11.7488 12.8836 12.0234 13.5145 12.3945C14.1453 12.7582 14.6945 13.0625 14.7391 13.0625C14.7836 13.0625 15.0211 12.9438 15.2586 12.8027C15.4961 12.6617 15.7113 12.543 15.7484 12.543C15.7781 12.543 15.8078 11.9047 15.8078 11.1328V9.72266H18.8879H21.968V11.1328Z" fill="white"/>
<path d="M17.7977 12.8102L17.7754 13.8938L17.2188 14.0941C16.5582 14.3242 16.1277 14.5691 15.5859 15.007C15.3707 15.1852 15.1406 15.3707 15.0664 15.4227C14.9551 15.5043 14.8141 15.4449 14.0348 14.9922C13.5375 14.7027 13.0996 14.4875 13.0699 14.5098C12.9437 14.584 12.016 16.2539 12.0531 16.3207C12.0828 16.3652 13.1812 17.0258 13.8492 17.3969C13.8566 17.4043 13.8195 17.6344 13.7602 17.9238C13.634 18.577 13.634 19.4676 13.7602 20.1652L13.8566 20.6996L12.9363 21.234C12.4391 21.5234 12.0234 21.7832 12.0234 21.8055C12.0234 21.9168 13.0328 23.6016 13.0996 23.6016C13.1441 23.6016 13.5746 23.3715 14.057 23.0895L14.9402 22.5773L15.4969 23.0227C16.0906 23.4902 16.6102 23.7797 17.3523 24.0469L17.8125 24.2176V25.316V26.4219H18.8887H19.9648V25.3234V24.2176L20.284 24.1285C20.8629 23.9504 21.6422 23.5273 22.2434 23.0523L22.8371 22.5773L23.7203 23.0895C24.2027 23.3715 24.6332 23.6016 24.6777 23.6016C24.7445 23.6016 25.7539 21.9168 25.7539 21.8055C25.7539 21.7832 25.3383 21.5234 24.841 21.234L23.9207 20.6996L24.0172 20.1652C24.1434 19.4676 24.1434 18.577 24.0172 17.9238C23.9578 17.6344 23.9207 17.4043 23.9281 17.3969C24.5961 17.0258 25.6945 16.3652 25.7242 16.3207C25.7613 16.2539 24.8336 14.584 24.7074 14.5098C24.6777 14.4875 24.2398 14.7027 23.7426 14.9922C22.9633 15.4449 22.8223 15.5043 22.7109 15.4227C22.6367 15.3707 22.4066 15.1852 22.1914 15.007C21.6496 14.5691 21.2191 14.3242 20.5586 14.0941L20.002 13.8938L19.9797 12.8102L19.9574 11.7266H18.8887H17.8199L17.7977 12.8102ZM19.9797 16.1797C21.6125 16.7883 22.4141 18.7402 21.6793 20.2988C20.7367 22.3176 18.1613 22.748 16.6695 21.1523C15.4375 19.8387 15.5711 17.7754 16.9516 16.677C17.8422 15.9719 18.948 15.7937 19.9797 16.1797Z" fill="white"/>
<path d="M18.4122 18.0945C18.0633 18.2652 17.8778 18.5473 17.8333 18.9406C17.7887 19.3117 17.9075 19.6012 18.2192 19.8906C18.3899 20.0465 18.4864 20.0762 18.8872 20.0762C19.2879 20.0762 19.3844 20.0465 19.5551 19.8906C19.8668 19.6012 19.9856 19.3117 19.9411 18.9406C19.9188 18.7625 19.8446 18.525 19.7629 18.4137C19.5848 18.1688 19.1766 17.9609 18.8872 17.9609C18.7684 17.9609 18.5532 18.0203 18.4122 18.0945Z" fill="white"/>
</svg>
