<svg width="33" height="33" viewBox="0 0 33 33" fill="none" xmlns="http://www.w3.org/2000/svg">
<path d="M1.36641 1.81113C0.908789 1.9916 0.438281 2.46855 0.264258 2.93262C0.128906 3.29355 0.128906 3.29355 0.128906 14.6631V26.0262L0.502734 25.8457C1.19238 25.4977 1.5082 25.4461 3.20977 25.4139L4.76953 25.3816L4.75664 13.7543L4.7373 2.12695L4.52461 1.9207L4.31836 1.70801L3.00996 1.69511C1.83047 1.68222 1.67578 1.68867 1.36641 1.81113Z" fill="white"/>
<path d="M6.56185 16.1713C6.54252 26.5354 6.54252 26.5482 6.40717 26.7223C6.33627 26.8189 6.19447 26.9607 6.09779 27.0316C5.93021 27.1605 5.8142 27.167 3.7517 27.1992C1.69564 27.2314 1.56674 27.2379 1.2767 27.3732C0.019861 27.9533 -0.276623 29.7516 0.709509 30.7441C0.915759 30.9439 1.15424 31.1051 1.38627 31.1889L1.7472 31.3242H17.0033C32.0208 31.3242 32.2658 31.3242 32.4656 31.1953C32.9038 30.9311 32.8716 31.9752 32.8587 18.4723L32.8394 6.25195L32.6267 6.0457L32.4204 5.83301L19.4976 5.81367L6.57474 5.80078L6.56185 16.1713ZM10.7384 10.1965C10.8802 10.3318 10.9833 10.5059 11.022 10.667C11.0607 10.8152 11.0865 13.9734 11.0865 18.1564V25.3945H13.0201H14.9536V21.2953C14.9536 18.0211 14.9343 17.209 14.8763 17.2541C14.8312 17.2928 14.6378 17.441 14.4509 17.5828C14.148 17.8213 14.0642 17.8535 13.7806 17.8535C13.4906 17.8535 13.4326 17.8277 13.207 17.6021C12.9814 17.383 12.9556 17.3186 12.9556 17.035C12.9556 16.848 13.0007 16.6611 13.0587 16.5709C13.1167 16.4871 14.973 14.9725 17.1837 13.2064L21.2056 9.99023H21.5279H21.8501L25.872 13.2064C28.0828 14.9725 29.939 16.4871 29.997 16.5709C30.055 16.6611 30.1001 16.848 30.1001 17.035C30.1001 17.3186 30.0744 17.383 29.8488 17.6021C29.6232 17.8277 29.5652 17.8535 29.2751 17.8535C28.9915 17.8535 28.9077 17.8213 28.6048 17.5828C28.4179 17.441 28.2245 17.2928 28.1859 17.2541C28.1214 17.209 28.1021 18.0211 28.1021 21.2953V25.3945H28.637C29.3718 25.401 29.6425 25.4719 29.8939 25.7426C30.0679 25.9424 30.1001 26.0197 30.1001 26.3033C30.1001 26.5998 30.0744 26.6578 29.8552 26.877C29.6554 27.0832 29.5523 27.1283 29.2622 27.167C29.0689 27.1863 24.641 27.1992 19.4202 27.1863C9.95853 27.167 9.93275 27.167 9.75873 27.0316C9.66205 26.9607 9.52025 26.8189 9.44935 26.7223C9.314 26.5482 9.314 26.5096 9.29466 18.8654C9.28177 14.6373 9.29466 11.0215 9.314 10.8281C9.35267 10.5381 9.39779 10.435 9.60404 10.2352C9.82318 10.016 9.88119 9.99023 10.1777 9.99023C10.4613 9.99023 10.5386 10.0225 10.7384 10.1965Z" fill="white"/>
<path d="M19.1297 13.8381L16.7578 15.7395V20.567V25.3945H17.6537H18.5561L18.5754 23.1451C18.5947 20.9859 18.6012 20.8828 18.7301 20.7152C18.801 20.6186 18.9428 20.4768 19.0395 20.4059C19.2135 20.277 19.2908 20.2705 21.5273 20.2705C23.7639 20.2705 23.8412 20.277 24.0152 20.4059C24.1119 20.4768 24.2537 20.6186 24.3246 20.7152C24.4535 20.8828 24.46 20.9859 24.4793 23.1451L24.4986 25.3945H25.401H26.2969V20.567V15.7395L23.9121 13.8316C22.6037 12.7811 21.5209 11.9238 21.5145 11.9303C21.5016 11.9303 20.4316 12.7875 19.1297 13.8381ZM22.0816 15.3527C22.3652 15.617 22.4297 15.8748 22.4297 16.7578C22.4297 17.6408 22.3652 17.8986 22.0816 18.1564C21.8883 18.3369 21.8045 18.3691 21.5273 18.3691C21.2502 18.3691 21.1664 18.3369 20.973 18.1564C20.6895 17.8986 20.625 17.6408 20.625 16.7578C20.625 15.8748 20.6895 15.617 20.973 15.3527C21.1664 15.1787 21.2502 15.1465 21.5273 15.1465C21.8045 15.1465 21.8883 15.1787 22.0816 15.3527Z" fill="white"/>
<path d="M20.3672 23.7188V25.3945H21.5273H22.6875V23.7188V22.043H21.5273H20.3672V23.7188Z" fill="white"/>
</svg>
