<svg width="35" height="35" viewBox="0 0 35 35" fill="none" xmlns="http://www.w3.org/2000/svg">
<g clip-path="url(#clip0_194_727)">
<path d="M14.875 0.129883C14.5059 0.375977 14.4238 0.581055 14.4238 1.29883V1.95508L13.9658 2.18066C13.7061 2.30371 13.3438 2.51562 13.1523 2.63867C12.9609 2.76855 12.7832 2.87109 12.7627 2.87109C12.7422 2.87109 12.5098 2.74121 12.2363 2.59082C11.792 2.33105 11.7168 2.31055 11.3613 2.33789C11.1152 2.35156 10.8965 2.41309 10.7871 2.49512C10.6846 2.57715 10.1104 3.48633 9.46777 4.60742L8.32617 6.58301L8.35352 6.96582C8.3877 7.46484 8.52441 7.64258 9.14648 8.00488L9.63867 8.28516V9.22852V10.1719L9.14648 10.4521C8.52441 10.8145 8.3877 10.9922 8.35352 11.4912L8.32617 11.874L9.46777 13.8496C10.1104 14.9707 10.6846 15.8799 10.7871 15.9619C10.8965 16.0439 11.1152 16.1055 11.3613 16.1191C11.7168 16.1465 11.792 16.126 12.2363 15.8662C12.5098 15.7158 12.7422 15.5859 12.7627 15.5859C12.7832 15.5859 12.9609 15.6885 13.1523 15.8184C13.3438 15.9414 13.7061 16.1533 13.9658 16.2764L14.4238 16.502V17.1582C14.4238 17.876 14.5059 18.0811 14.875 18.3271C15.0596 18.4502 15.2373 18.457 17.5 18.457C19.7627 18.457 19.9404 18.4502 20.125 18.3271C20.4941 18.0811 20.5762 17.876 20.5762 17.1582V16.502L20.9795 16.3105C21.2051 16.208 21.5605 16.0029 21.7861 15.8525C22.0049 15.709 22.2031 15.5859 22.2305 15.5859C22.251 15.5859 22.4902 15.7158 22.7637 15.8662C23.208 16.126 23.2832 16.1465 23.6387 16.1191C23.8848 16.1055 24.1035 16.0439 24.2129 15.9619C24.3154 15.8799 24.8896 14.9639 25.5322 13.8564L26.6738 11.8809L26.6465 11.4912C26.6123 10.9922 26.4756 10.8145 25.8604 10.4521L25.3613 10.1719V9.22852V8.28516L25.792 8.0459C26.4414 7.67676 26.6123 7.46484 26.6465 6.97949L26.6738 6.57617L25.5322 4.60059C24.8896 3.49316 24.3154 2.57715 24.2129 2.49512C24.1035 2.41309 23.8848 2.35156 23.6387 2.33789C23.2832 2.31055 23.208 2.33105 22.7637 2.59082C22.4902 2.74121 22.251 2.87109 22.2305 2.87109C22.2031 2.87109 22.0049 2.74805 21.7861 2.60449C21.5605 2.4541 21.2051 2.24902 20.9795 2.14648L20.5762 1.95508V1.29883C20.5762 0.581055 20.4941 0.375977 20.125 0.129883C19.9404 0.00683594 19.7627 0 17.5 0C15.2373 0 15.0596 0.00683594 14.875 0.129883ZM18.751 6.47363C19.3662 6.76758 19.9609 7.35547 20.2549 7.97754C20.46 8.41504 20.4736 8.4834 20.4736 9.22852C20.4736 9.97363 20.46 10.042 20.2549 10.4795C19.9609 11.1016 19.373 11.6895 18.751 11.9834C18.3135 12.1885 18.2451 12.2021 17.5 12.2021C16.7549 12.2021 16.6865 12.1885 16.249 11.9834C15.627 11.6895 15.0391 11.1016 14.7451 10.4795C14.54 10.042 14.5264 9.97363 14.5264 9.22852C14.5264 8.4834 14.54 8.41504 14.7451 7.97754C14.998 7.44434 15.5996 6.80176 16.0645 6.5625C16.6182 6.27539 16.8848 6.2207 17.6025 6.24121C18.2109 6.25488 18.3408 6.28223 18.751 6.47363Z" fill="white"/>
<path d="M3.33613 13.877C0.00018787 15.5518 0.0685473 15.5107 0.0685473 16.2012C0.0685473 16.9326 -0.587703 16.5566 8.75702 21.2256C16.5158 25.1084 17.1857 25.4297 17.5002 25.4297C17.8146 25.4297 18.4846 25.1084 26.2434 21.2256C35.5881 16.5566 34.9318 16.9326 34.9318 16.2012C34.9318 15.5039 35.0002 15.5518 31.6437 13.877C29.9963 13.0498 28.6291 12.373 28.6086 12.373C28.5949 12.373 28.5266 12.4893 28.4719 12.626C28.4103 12.7695 27.8498 13.7744 27.2209 14.8682C25.9289 17.1035 25.6623 17.4521 24.8488 17.8486C24.3976 18.0674 24.3361 18.0811 23.6525 18.0811C23.256 18.0811 22.8459 18.0674 22.7365 18.0469C22.5588 18.0127 22.5383 18.0332 22.4562 18.2861C22.3127 18.7715 22.0734 19.1611 21.6633 19.5645C21.1711 20.0635 20.59 20.3438 19.8859 20.4395C19.2297 20.5215 15.7707 20.5215 15.1144 20.4395C13.9113 20.2822 12.8859 19.4277 12.5441 18.2861C12.4621 18.0332 12.4416 18.0127 12.2639 18.0469C12.1545 18.0674 11.7443 18.0811 11.3478 18.0811C10.6779 18.0811 10.5959 18.0674 10.1652 17.8623C9.36542 17.4795 9.07148 17.1172 7.77949 14.8682C7.15058 13.7744 6.59003 12.7695 6.52851 12.626C6.47382 12.4893 6.39863 12.373 6.37128 12.373C6.34394 12.3799 4.98359 13.0566 3.33613 13.877Z" fill="white"/>
<path d="M0.806829 19.9404C0.239446 20.2412 0.0685473 20.4805 0.0685473 20.9863C0.0685473 21.7178 -0.587703 21.3418 8.75702 26.0107C16.5158 29.8936 17.1857 30.2148 17.5002 30.2148C17.8146 30.2148 18.4846 29.8936 26.2434 26.0107C35.5881 21.3418 34.9318 21.7178 34.9318 20.9863C34.9318 20.4736 34.7609 20.2344 34.1867 19.9336L33.7082 19.6875L26.0109 23.5293L18.3205 27.3779H17.5002H16.6799L8.98945 23.5293C4.758 21.417 1.29218 19.6875 1.27851 19.6875C1.27167 19.6875 1.05976 19.8037 0.806829 19.9404Z" fill="white"/>
<path d="M0.806829 24.7256C0.239446 25.0264 0.0685473 25.2656 0.0685473 25.7715C0.0685473 26.5029 -0.587703 26.127 8.75702 30.7959C16.5158 34.6787 17.1857 35 17.5002 35C17.8146 35 18.4846 34.6787 26.2434 30.7959C35.5881 26.127 34.9318 26.5029 34.9318 25.7715C34.9318 25.2588 34.7609 25.0195 34.1867 24.7188L33.7082 24.4727L26.0109 28.3145L18.3205 32.1631H17.5002H16.6799L8.98945 28.3145C4.758 26.2021 1.29218 24.4727 1.27851 24.4727C1.27167 24.4727 1.05976 24.5889 0.806829 24.7256Z" fill="white"/>
</g>
<defs>
<clipPath id="clip0_194_727">
<rect width="35" height="35" fill="white"/>
</clipPath>
</defs>
</svg>
