<svg width="33" height="33" viewBox="0 0 33 33" fill="none" xmlns="http://www.w3.org/2000/svg">
<g clip-path="url(#clip0_194_706)">
<path d="M2.79112 0.0966816C1.50206 0.444727 0.49659 1.44375 0.103426 2.76504C0.0131919 3.08086 0.000301315 4.20879 0.000301315 14.4053C0.000301315 26.8254 -0.0254799 25.9682 0.399911 26.8576C0.68995 27.457 1.41827 28.1854 2.01768 28.4754C2.88136 28.8943 2.59776 28.875 9.10108 28.875H15.0243L14.773 28.5012C13.8771 27.1799 13.3228 25.6266 13.1423 23.9443C12.8716 21.3598 13.8255 18.44 15.5786 16.5C16.8741 15.0691 18.2148 14.1797 19.9743 13.5996C20.8444 13.3096 21.6501 13.1613 22.6685 13.1033L23.3968 13.0646V8.15332V3.23555L23.2485 2.71992C23.1648 2.43633 22.9972 2.03672 22.8747 1.83047C22.5653 1.30195 21.9466 0.708986 21.4245 0.438282C20.5415 -0.0257797 21.1409 1.90735e-06 11.6599 0.00644684C4.55069 0.00644684 3.06827 0.0257835 2.79112 0.0966816ZM11.7437 5.775C12.5816 6.38731 12.4913 7.57969 11.5696 8.07598C11.3183 8.21777 11.2603 8.21777 8.2503 8.21777C5.24034 8.21777 5.18233 8.21777 4.93097 8.07598C4.396 7.79238 4.16397 7.37988 4.20265 6.79336C4.23487 6.29063 4.4669 5.9168 4.89874 5.69121L5.18233 5.53652L8.3212 5.55586L11.4601 5.5752L11.7437 5.775ZM18.247 11.0924C18.7819 11.2535 19.2073 11.8207 19.2073 12.375C19.2073 12.9293 18.7819 13.4965 18.247 13.6576C17.9118 13.7543 5.49171 13.7607 5.13722 13.6576C4.84073 13.5738 4.43468 13.2258 4.29288 12.9293C4.16397 12.6521 4.15753 12.1043 4.28643 11.8336C4.42823 11.5371 4.77628 11.2213 5.06632 11.1182C5.40147 10.9957 17.8538 10.9764 18.247 11.0924ZM12.5751 16.5645C13.3743 16.7191 13.8706 17.4797 13.6579 18.2273C13.5548 18.6012 13.1294 19.0395 12.7814 19.1426C12.6073 19.1941 11.4214 19.207 8.78526 19.1941L5.04054 19.1748L4.75694 18.975C3.7837 18.266 4.09952 16.7965 5.28546 16.558C5.65284 16.4871 12.1819 16.4936 12.5751 16.5645Z" fill="white"/>
<path d="M21.798 15.8813C20.2446 16.1777 18.9814 16.8352 17.9114 17.9115C16.4419 19.3811 15.72 21.2438 15.8103 23.3578C15.8554 24.4406 16.0552 25.2463 16.5257 26.2002C17.6601 28.5076 19.7612 29.9707 22.3329 30.2414C23.8153 30.3961 25.5362 30.0158 26.7157 29.2746L27.038 29.0748L28.9071 30.9375C30.1318 32.1557 30.8601 32.8389 31.0148 32.9033C31.3821 33.0516 31.9558 33.0322 32.2974 32.8518C32.7228 32.6262 32.9548 32.2523 32.987 31.7496C33.0321 31.0213 33.0386 31.0277 30.9632 28.9395L29.0747 27.0381L29.2745 26.7158C30.0222 25.5234 30.396 23.8219 30.2413 22.333C30.0609 20.5992 29.3519 19.1039 28.1337 17.8857C27.2507 17.0092 26.0583 16.326 24.8337 16.0037C24.0474 15.8039 22.5521 15.7395 21.798 15.8813ZM24.0732 18.7301C24.5823 18.8525 25.4138 19.265 25.8134 19.6002C26.5868 20.2383 27.0896 21.0439 27.3345 22.043C27.7857 23.8412 26.9349 25.8328 25.2849 26.8318C23.1515 28.1338 20.2962 27.3152 19.1167 25.0723C18.73 24.3439 18.6075 23.7574 18.6398 22.8551C18.6655 22.1912 18.6978 21.9979 18.8653 21.5596C19.1876 20.6959 19.6775 20.0256 20.3671 19.5035C21.4499 18.6979 22.7712 18.4207 24.0732 18.7301Z" fill="white"/>
</g>
<defs>
<clipPath id="clip0_194_706">
<rect width="33" height="33" fill="white"/>
</clipPath>
</defs>
</svg>
