<svg width="178" height="50" viewBox="0 0 178 50" fill="none" xmlns="http://www.w3.org/2000/svg">
<g clip-path="url(#clip0_107_872)">
<path d="M72.1145 28.1426L67.0043 40.8108C66.582 41.8368 66.1971 42.0258 65.5878 42.0258C64.9677 42.0258 64.5775 41.8422 64.1712 40.8216L59.0557 28.148H56.3188L61.7818 41.7504C62.2843 43.014 63.2198 44.6934 65.5824 44.6934C67.9344 44.6934 68.8752 43.014 69.383 41.7558L74.846 28.148H72.1145V28.1426Z" fill="white"/>
<path d="M79.5123 28.1426H77V44.4936H79.5123V28.1426Z" fill="white"/>
<path d="M98.5047 32.684C98.5047 29.8814 96.698 28.1372 93.7847 28.1372H82.1157V44.4882H93.9985C97.5746 44.4882 98.8468 41.934 98.8468 39.7525C98.8468 38.1811 98.2428 36.8689 97.2004 36.0373C98.0343 35.2597 98.5047 34.0987 98.5047 32.684ZM96.0084 32.7704C96.0084 34.1581 95.3295 34.8007 93.8702 34.8007H84.6013V30.7562H93.8702C95.3509 30.7562 96.0084 31.3772 96.0084 32.7704ZM84.6067 37.3765H94.0894C96.1153 37.3765 96.3345 38.9965 96.3345 39.6877C96.3345 40.5031 96.0405 41.8692 94.0894 41.8692H84.6067V37.3765Z" fill="white"/>
<path d="M114.616 36.7879C114.616 40.881 113.402 42.0042 108.976 42.0042C104.577 42.0042 103.374 40.881 103.374 36.7879V28.1426H100.862V36.7879C100.862 42.3984 103.214 44.6826 108.976 44.6826C114.856 44.6826 117.144 42.4686 117.144 36.7879V28.1426H114.616V36.7879Z" fill="white"/>
<path d="M135.655 33.3049C135.655 30.1676 133.693 28.1426 130.668 28.1426H119.41V44.4936H121.922V38.64H130.529C131.956 38.64 132.774 39.4878 132.774 40.9728V44.4936H135.318V40.9944C135.318 39.4878 134.794 38.2351 133.859 37.4089C134.997 36.5341 135.655 35.0815 135.655 33.3049ZM130.7 36.0427H121.917V30.7615H130.7C132.704 30.7615 133.126 32.1925 133.126 33.3913C133.126 34.1905 132.891 36.0427 130.7 36.0427Z" fill="white"/>
<path d="M152.68 28.1426V41.772C151.509 41.5722 150.82 40.5408 147.976 36.0481L147.714 35.6377C144.004 29.7302 143.005 28.1426 139.771 28.1426H138.018V44.4936H140.546V30.8857C141.727 31.0747 142.417 32.1115 145.485 36.9391L145.619 37.1551C149.302 42.9384 150.291 44.4936 153.466 44.4936H155.203V28.1426H152.68Z" fill="white"/>
<path d="M37.8186 38.3647C37.7651 38.4349 37.7117 38.4997 37.6582 38.5645C37.7117 38.4943 37.7651 38.4295 37.8186 38.3647Z" fill="white"/>
<path d="M37.9899 38.1543C37.9311 38.2245 37.8776 38.2947 37.8188 38.3649C37.8776 38.2893 37.9311 38.2245 37.9899 38.1543Z" fill="white"/>
<path d="M63.9417 0.937988C58.3237 0.937988 54.4055 6.94811 51.0058 13.4334C49.616 16.0794 48.2476 18.9792 46.8043 22.0409L46.7669 22.1165C45.0136 25.8317 43.0625 29.9518 41.0794 33.4402C40.732 34.0558 40.3792 34.6552 40.0264 35.2222C39.2994 36.4101 38.6152 37.3659 37.9844 38.1543C37.931 38.2245 37.8722 38.2893 37.8134 38.3649C37.7599 38.4297 37.7011 38.4999 37.653 38.5647C35.146 41.6157 32.174 43.3977 28.9774 43.3977C27.1172 43.3977 25.3319 42.7875 23.6748 41.6913C26.278 45.8816 29.5815 48.9488 34.3068 48.9488C37.6209 48.9488 40.4005 47.0912 42.667 44.6828C44.3882 42.8577 45.8101 40.7193 46.954 38.8293H46.9593L47.0235 38.7213C47.9643 37.1553 48.8783 35.4706 49.7443 33.7804L49.755 33.7642C49.755 33.7642 49.755 33.7696 49.7496 33.7696C50.5889 32.1334 51.3853 30.5026 52.1123 28.9852C52.6629 27.8405 53.2135 26.6741 53.764 25.5023L53.8282 25.3673C54.5605 23.8175 55.3195 22.2137 56.116 20.5883C58.3557 16.0146 60.6168 11.3491 64.0913 7.8445C65.7698 6.14352 68.5708 3.60555 73.3442 7.41251C71.7406 5.87893 69.4795 0.937988 63.9417 0.937988Z" fill="white"/>
<path d="M22.0177 19.7352C19.6978 14.9401 16.2553 12.8071 13.139 12.8071C9.38117 12.8071 6.71382 15.3235 4.62911 18.7147C3.81661 20.016 3.04688 21.5388 2.30386 23.2938C2.25576 23.4018 2.20765 23.5098 2.15954 23.6178C2.16488 23.607 2.17558 23.5962 2.18092 23.58C1.67311 24.8004 1.17064 26.1234 0.68421 27.5705L0 29.6171H2.13281H7.10938H7.9486C9.93709 23.3478 15.4856 11.5111 22.0177 19.7352Z" fill="white"/>
<path d="M30.4313 37.3066C27.9991 33.2134 26.3688 29.2013 24.4177 24.9407C22.21 20.6802 17.7894 15.1777 13.6948 20.9934C15.2824 22.9968 17.3083 27.7811 18.6019 30.9455C19.7832 33.8344 19.7993 34.1044 21.0768 36.826C23.4662 41.3025 28.2129 43.5543 33.4888 40.8975C32.1632 39.8662 31.1208 38.473 30.4313 37.3066Z" fill="white"/>
<path d="M166.851 29.6444H167.819C168.948 29.6444 169.486 30.0746 169.647 31.0426C169.916 32.0643 170.078 32.871 170.346 33.1936H172.551C172.336 32.871 172.175 32.3332 171.906 30.9888C171.637 29.8057 171.153 29.1604 170.293 28.8377V28.7302C171.368 28.4075 172.121 27.6547 172.121 26.6867C172.121 25.8263 171.745 25.1272 171.261 24.7507C170.615 24.3743 169.862 24.1054 168.195 24.1054C166.743 24.1054 165.614 24.213 164.807 24.3743V33.1936H166.851V29.6444ZM166.905 25.6649C167.12 25.6112 167.496 25.5574 168.034 25.5574C169.325 25.5574 169.916 26.0951 169.916 26.9018C169.916 27.816 169.002 28.1924 167.873 28.1924H166.905V25.6649ZM168.249 19.7495C163.194 19.7495 159.161 23.6752 159.161 28.5689C159.161 33.5701 163.194 37.4958 168.249 37.4958C173.358 37.4958 177.284 33.5701 177.284 28.5689C177.284 23.6752 173.358 19.7495 168.249 19.7495ZM168.249 21.5241C172.175 21.5241 175.025 24.697 175.025 28.6226C175.025 32.4946 172.175 35.6136 168.303 35.6136C164.323 35.6136 161.42 32.4946 161.42 28.5689C161.42 24.697 164.323 21.5241 168.249 21.5241Z" fill="white"/>
</g>
<defs>
<clipPath id="clip0_107_872">
<rect width="178" height="49" fill="white" transform="translate(0 0.937988)"/>
</clipPath>
</defs>
</svg>
